<svg version="1.1" viewBox="0 0 50 50" xmlns="http://www.w3.org/2000/svg" >
    <path d="m24.93 17.83c4.146 0 7.506 3.36 7.506 7.506s-3.36 7.506-7.506 7.506-7.506-3.36-7.506-7.506 3.36-7.506 7.506-7.506zm-5.601-6.124h11.35c4.262 0 7.739 3.448 7.739 7.637v11.32c0 4.204-3.477 7.637-7.739 7.637h-11.35c-4.262 0-7.739-3.433-7.739-7.637v-11.32c0-4.204 3.491-7.637 7.739-7.637zm12.86 5.077c0.6692 0 1.222 0.5383 1.222 1.222 0 0.6692-0.5383 1.222-1.222 1.222-0.6692 0-1.222-0.5382-1.222-1.222 0-0.6692 0.5382-1.222 1.222-1.222zm-11.93-2.909h9.485c3.564 0 6.474 2.895 6.474 6.444v9.543c0 3.55-2.909 6.444-6.474 6.444h-9.485c-3.564 0-6.474-2.895-6.474-6.444v-9.543c0-3.55 2.909-6.444 6.474-6.444zm4.67 6.474c2.735 0 4.961 2.226 4.961 4.961 0 2.735-2.226 4.961-4.961 4.961-2.749 0-4.961-2.226-4.961-4.961 0-2.735 2.226-4.961 4.961-4.961z" fill="#8134af" fill-rule="evenodd" />
    <path d="m25 50c13.81 0 25-11.19 25-25 0-13.81-11.19-25-25-25s-25 11.19-25 25c0 13.81 11.19 25 25 25zm0-3c12.15 0 22-9.85 22-22 0-12.15-9.85-22-22-22s-22 9.85-22 22c0 12.15 9.85 22 22 22z" fill="#8134af" fill-rule="evenodd"/>
</svg>
