<svg xmlns="http://www.w3.org/2000/svg" viewBox="0 0 50 50">
	<path fill="#55acee" fill-rule="evenodd" d="M25 50c13.807 0 25-11.193 25-25S38.807 0 25 0 0 11.193 0 25s11.193 25 25 25zm0-3c12.15 0 22-9.85 22-22S37.15 3 25 3 3 12.85 3 25s9.85 22 22 22zm-.318-26.446l.048.822-.795-.1c-2.893-.386-5.42-1.694-7.566-3.892l-1.05-1.09-.27.805c-.58 1.79-.21 3.69.98 4.96.63.7.49.8-.61.38-.38-.137-.716-.237-.747-.187-.11.117.27 1.644.572 2.247.412.84 1.255 1.66 2.177 2.147l.78.385-.92.016c-.89 0-.922.015-.827.37.32 1.09 1.575 2.245 2.974 2.75l.985.35-.857.537c-1.274.77-2.768 1.21-4.26 1.24-.718.02-1.306.084-1.306.134 0 .166 1.94 1.105 3.066 1.474 3.387 1.09 7.41.622 10.43-1.24 2.145-1.325 4.29-3.958 5.292-6.507.54-1.36 1.08-3.84 1.08-5.03 0-.77.047-.87.937-1.796.523-.537 1.016-1.124 1.11-1.29.16-.32.145-.32-.666-.034-1.35.503-1.54.436-.87-.32.49-.536 1.08-1.508 1.08-1.793 0-.05-.24.033-.51.184-.286.17-.92.42-1.4.57l-.857.287-.78-.553c-.427-.3-1.03-.636-1.35-.737-.81-.236-2.05-.2-2.78.066-1.987.753-3.243 2.7-3.1 4.83 0 0-.143-2.13 0 0zm0 0"/>
</svg>
