<?xml version="1.0" encoding="UTF-8" standalone="no"?>
<svg
     xmlns:dc="http://purl.org/dc/elements/1.1/"
     xmlns:cc="http://creativecommons.org/ns#"
     xmlns:rdf="http://www.w3.org/1999/02/22-rdf-syntax-ns#"
     xmlns:svg="http://www.w3.org/2000/svg"
     xmlns="http://www.w3.org/2000/svg"
     xmlns:sodipodi="http://sodipodi.sourceforge.net/DTD/sodipodi-0.dtd"
     xmlns:inkscape="http://www.inkscape.org/namespaces/inkscape"
     inkscape:version="1.0 (4035a4fb49, 2020-05-01)"
     sodipodi:docname="ls.svg"
     id="svg22"
     viewBox="0 0 132.29 66.146"
     version="1.1"
     height="250"
     width="500">
    <metadata
         id="metadata28">
        <rdf:RDF>
            <cc:Work
                 rdf:about="">
                <dc:format>image/svg+xml</dc:format>
                <dc:type
                     rdf:resource="http://purl.org/dc/dcmitype/StillImage" />
                <dc:title></dc:title>
            </cc:Work>
        </rdf:RDF>
    </metadata>
    <defs
         id="defs26" />
    <sodipodi:namedview
         inkscape:current-layer="g18"
         inkscape:window-maximized="1"
         inkscape:window-y="0"
         inkscape:window-x="0"
         inkscape:cy="206.54096"
         inkscape:cx="238.75443"
         inkscape:zoom="2.1241488"
         showgrid="false"
         id="namedview24"
         inkscape:window-height="1359"
         inkscape:window-width="2560"
         inkscape:pageshadow="2"
         inkscape:pageopacity="0"
         guidetolerance="10"
         gridtolerance="10"
         objecttolerance="10"
         borderopacity="1"
         bordercolor="#666666"
         pagecolor="#ffffff" />
    <g
         id="g20"
         transform="translate(0 -58.875)">
        <g
             id="g18"
             transform="matrix(0.21552,0,0,0.21552,-298.31,-5.053222)">
            <g
                 transform="matrix(1.5269899,0,0,1.5269899,-743.18912,-241.19786)"
                 style="font-style:normal;font-variant:normal;font-weight:bold;font-stretch:normal;font-size:32.7374px;line-height:1.25;font-family:Raleway;-inkscape-font-specification:'Raleway, Bold';font-variant-ligatures:normal;font-variant-caps:normal;font-variant-numeric:normal;font-variant-east-asian:normal;letter-spacing:0px;word-spacing:0px;fill:#000000;stroke-width:1.47845"
                 id="text4"
                 aria-label="FLATIRONS RECOVERY">
                <path
                     id="path30"
                     style="font-style:normal;font-variant:normal;font-weight:bold;font-stretch:normal;font-size:32.7374px;font-family:Raleway;-inkscape-font-specification:'Raleway, Bold';font-variant-ligatures:normal;font-variant-caps:normal;font-variant-numeric:normal;font-variant-east-asian:normal;letter-spacing:-0.623965px;word-spacing:0px;fill:#000000;stroke-width:1.47845"
                     d="M 1413.4399,529.64459 V 506.40101 H 1429.0557 V 510.36224 H 1417.9577 V 516.35319 H 1427.1896 V 520.01978 H 1417.9577 V 529.64459 Z" />
                <path
                     id="path32"
                     style="font-style:normal;font-variant:normal;font-weight:bold;font-stretch:normal;font-size:32.7374px;font-family:Raleway;-inkscape-font-specification:'Raleway, Bold';font-variant-ligatures:normal;font-variant-caps:normal;font-variant-numeric:normal;font-variant-east-asian:normal;letter-spacing:-0.623965px;word-spacing:0px;fill:#000000;stroke-width:1.47845"
                     d="M 1431.6072,529.64459 V 506.40101 H 1436.125 V 525.68336 H 1447.9759 V 529.64459 Z" />
                <path
                     id="path34"
                     style="font-style:normal;font-variant:normal;font-weight:bold;font-stretch:normal;font-size:32.7374px;font-family:Raleway;-inkscape-font-specification:'Raleway, Bold';font-variant-ligatures:normal;font-variant-caps:normal;font-variant-numeric:normal;font-variant-east-asian:normal;letter-spacing:-0.623965px;word-spacing:0px;fill:#000000;stroke-width:1.47845"
                     d="M 1456.4202,506.40101 H 1461.0035 L 1469.5479,529.64459 H 1464.8992 L 1462.7386,523.85007 H 1454.6197 L 1452.4917,529.64459 H 1447.843 Z M 1461.9201,520.67453 1458.7119,511.08246 1455.3726,520.67453 Z" />
                <path
                     id="path36"
                     style="font-style:normal;font-variant:normal;font-weight:bold;font-stretch:normal;font-size:32.7374px;font-family:Raleway;-inkscape-font-specification:'Raleway, Bold';font-variant-ligatures:normal;font-variant-caps:normal;font-variant-numeric:normal;font-variant-east-asian:normal;letter-spacing:-0.623965px;word-spacing:0px;fill:#000000;stroke-width:1.47845"
                     d="M 1486.7003,510.36224 H 1479.2689 V 529.64459 H 1474.7839 V 510.36224 H 1467.3525 V 506.40101 H 1486.7003 Z" />
                <path
                     id="path38"
                     style="font-style:normal;font-variant:normal;font-weight:bold;font-stretch:normal;font-size:32.7374px;font-family:Raleway;-inkscape-font-specification:'Raleway, Bold';font-variant-ligatures:normal;font-variant-caps:normal;font-variant-numeric:normal;font-variant-east-asian:normal;letter-spacing:-0.623965px;word-spacing:0px;fill:#000000;stroke-width:1.47845"
                     d="M 1488.9572,529.64459 V 506.40101 H 1493.475 V 529.64459 Z" />
                <path
                     id="path40"
                     style="font-style:normal;font-variant:normal;font-weight:bold;font-stretch:normal;font-size:32.7374px;font-family:Raleway;-inkscape-font-specification:'Raleway, Bold';font-variant-ligatures:normal;font-variant-caps:normal;font-variant-numeric:normal;font-variant-east-asian:normal;letter-spacing:-0.623965px;word-spacing:0px;fill:#000000;stroke-width:1.47845"
                     d="M 1497.6961,529.64459 V 506.40101 H 1507.9757 Q 1509.5798,506.40101 1510.9221,507.05576 1512.297,507.71051 1513.2792,508.82358 1514.294,509.93665 1514.8178,511.31162 1515.3744,512.6866 1515.3744,514.12704 1515.3744,515.60023 1514.8506,516.9752 1514.3595,518.31744 1513.4101,519.3323 1512.4607,520.34716 1511.184,520.9037 L 1516.4874,529.64459 H 1511.5113 L 1506.7317,521.85308 H 1502.2139 V 529.64459 Z M 1502.2139,517.89185 H 1507.8775 Q 1508.7287,517.89185 1509.3834,517.40079 1510.0382,516.87699 1510.431,516.02582 1510.8239,515.17464 1510.8239,514.12704 1510.8239,513.01397 1510.3655,512.19554 1509.9072,511.34436 1509.187,510.8533 1508.4995,510.36224 1507.6811,510.36224 H 1502.2139 Z" />
                <path
                     id="path42"
                     style="font-style:normal;font-variant:normal;font-weight:bold;font-stretch:normal;font-size:32.7374px;font-family:Raleway;-inkscape-font-specification:'Raleway, Bold';font-variant-ligatures:normal;font-variant-caps:normal;font-variant-numeric:normal;font-variant-east-asian:normal;letter-spacing:-0.623965px;word-spacing:0px;fill:#000000;stroke-width:1.47845"
                     d="M 1528.631,529.80828 Q 1526.0775,529.80828 1523.9823,528.82616 1521.9198,527.84403 1520.4139,526.17442 1518.9407,524.47208 1518.1223,522.37688 1517.3038,520.24895 1517.3038,518.0228 1517.3038,515.69844 1518.155,513.60325 1519.0389,511.47531 1520.5448,509.83844 1522.0835,508.16883 1524.146,507.21944 1526.2412,506.23732 1528.7292,506.23732 1531.25,506.23732 1533.3124,507.25218 1535.4076,508.26704 1536.8808,509.96939 1538.354,511.67174 1539.1725,513.76693 1539.9909,515.86213 1539.9909,518.08828 1539.9909,520.3799 1539.1397,522.50783 1538.2885,524.60303 1536.7499,526.27264 1535.244,527.90951 1533.1488,528.85889 1531.0863,529.80828 1528.631,529.80828 Z M 1521.8871,518.0228 Q 1521.8871,519.52872 1522.3454,520.93643 1522.8037,522.34414 1523.6549,523.45722 1524.5388,524.53755 1525.7828,525.1923 1527.0596,525.81431 1528.6637,525.81431 1530.3006,525.81431 1531.5774,525.15956 1532.8541,524.47208 1533.7053,523.359 1534.5565,522.21319 1534.9821,520.83822 1535.4404,519.43051 1535.4404,518.0228 1535.4404,516.51688 1534.9493,515.14191 1534.491,513.7342 1533.6071,512.65386 1532.7559,511.54079 1531.4792,510.91878 1530.2351,510.26403 1528.6637,510.26403 1526.9941,510.26403 1525.7174,510.95151 1524.4733,511.60626 1523.6222,512.71933 1522.771,513.83241 1522.3127,515.20738 1521.8871,516.58235 1521.8871,518.0228 Z" />
                <path
                     id="path44"
                     style="font-style:normal;font-variant:normal;font-weight:bold;font-stretch:normal;font-size:32.7374px;font-family:Raleway;-inkscape-font-specification:'Raleway, Bold';font-variant-ligatures:normal;font-variant-caps:normal;font-variant-numeric:normal;font-variant-east-asian:normal;letter-spacing:-0.623965px;word-spacing:0px;fill:#000000;stroke-width:1.47845"
                     d="M 1547.3548,514.71632 V 529.64459 H 1542.837 V 506.40101 H 1546.4382 L 1558.4528,521.72213 V 506.43375 H 1562.9706 V 529.64459 H 1559.2058 Z" />
                <path
                     id="path46"
                     style="font-style:normal;font-variant:normal;font-weight:bold;font-stretch:normal;font-size:32.7374px;font-family:Raleway;-inkscape-font-specification:'Raleway, Bold';font-variant-ligatures:normal;font-variant-caps:normal;font-variant-numeric:normal;font-variant-east-asian:normal;letter-spacing:-0.623965px;word-spacing:0px;fill:#000000;stroke-width:1.47845"
                     d="M 1581.0396,512.49017 Q 1580.8105,512.26101 1580.1885,511.86816 1579.5992,511.47531 1578.7153,511.1152 1577.8641,510.75509 1576.8493,510.49319 1575.8344,510.19855 1574.7868,510.19855 1572.9535,510.19855 1572.0041,510.88604 1571.0875,511.57352 1571.0875,512.81755 1571.0875,513.76693 1571.6767,514.32347 1572.266,514.88001 1573.4446,515.27286 1574.6231,515.6657 1576.3909,516.12403 1578.6825,516.68057 1580.3522,517.499 1582.0545,518.2847 1582.9384,519.5942 1583.8551,520.87096 1583.8551,522.99889 1583.8551,524.86493 1583.1676,526.20716 1582.4801,527.51666 1581.2688,528.33509 1580.0575,529.15353 1578.5189,529.54638 1576.9802,529.90649 1575.2451,529.90649 1573.51,529.90649 1571.7749,529.54638 1570.0399,529.18627 1568.4357,528.53152 1566.8316,527.84403 1565.4894,526.89465 L 1567.4863,522.99889 Q 1567.781,523.29353 1568.5339,523.78459 1569.2869,524.24291 1570.3672,524.73398 1571.4476,525.1923 1572.7243,525.51967 1574.0011,525.84705 1575.3106,525.84705 1577.1439,525.84705 1578.0933,525.22504 1579.0427,524.60303 1579.0427,523.45722 1579.0427,522.40962 1578.2897,521.82034 1577.5367,521.23107 1576.1945,520.80548 1574.8523,520.34716 1573.019,519.82336 1570.8256,519.20135 1569.3524,518.44839 1567.8792,517.66269 1567.159,516.48414 1566.4387,515.30559 1566.4387,513.53777 1566.4387,511.14794 1567.5518,509.5438 1568.6976,507.90693 1570.6291,507.08849 1572.5606,506.23732 1574.9177,506.23732 1576.5546,506.23732 1577.9951,506.59743 1579.4682,506.95754 1580.745,507.54682 1582.0218,508.13609 1583.0366,508.82358 Z" />
                <path
                     id="path48"
                     style="font-style:normal;font-variant:normal;font-weight:bold;font-stretch:normal;font-size:32.7374px;font-family:Raleway;-inkscape-font-specification:'Raleway, Bold';font-variant-ligatures:normal;font-variant-caps:normal;font-variant-numeric:normal;font-variant-east-asian:normal;letter-spacing:-0.623965px;word-spacing:0px;fill:#000000;stroke-width:1.47845"
                     d="M 1593.8688,529.64459 V 506.40101 H 1604.1483 Q 1605.7525,506.40101 1607.0947,507.05576 1608.4697,507.71051 1609.4518,508.82358 1610.4667,509.93665 1610.9905,511.31162 1611.547,512.6866 1611.547,514.12704 1611.547,515.60023 1611.0232,516.9752 1610.5321,518.31744 1609.5827,519.3323 1608.6334,520.34716 1607.3566,520.9037 L 1612.6601,529.64459 H 1607.684 L 1602.9043,521.85308 H 1598.3865 V 529.64459 Z M 1598.3865,517.89185 H 1604.0501 Q 1604.9013,517.89185 1605.556,517.40079 1606.2108,516.87699 1606.6036,516.02582 1606.9965,515.17464 1606.9965,514.12704 1606.9965,513.01397 1606.5382,512.19554 1606.0798,511.34436 1605.3596,510.8533 1604.6721,510.36224 1603.8537,510.36224 H 1598.3865 Z" />
                <path
                     id="path50"
                     style="font-style:normal;font-variant:normal;font-weight:bold;font-stretch:normal;font-size:32.7374px;font-family:Raleway;-inkscape-font-specification:'Raleway, Bold';font-variant-ligatures:normal;font-variant-caps:normal;font-variant-numeric:normal;font-variant-east-asian:normal;letter-spacing:-0.623965px;word-spacing:0px;fill:#000000;stroke-width:1.47845"
                     d="M 1631.1547,525.68336 V 529.64459 H 1615.0152 V 506.40101 H 1630.8601 V 510.36224 H 1619.5329 V 515.96034 H 1629.3214 V 519.62694 H 1619.5329 V 525.68336 Z" />
                <path
                     id="path52"
                     style="font-style:normal;font-variant:normal;font-weight:bold;font-stretch:normal;font-size:32.7374px;font-family:Raleway;-inkscape-font-specification:'Raleway, Bold';font-variant-ligatures:normal;font-variant-caps:normal;font-variant-numeric:normal;font-variant-east-asian:normal;letter-spacing:-0.623965px;word-spacing:0px;fill:#000000;stroke-width:1.47845"
                     d="M 1632.2331,517.85911 Q 1632.2331,515.73118 1632.9861,513.70146 1633.7718,511.639 1635.2449,509.96939 1636.7181,508.26704 1638.8461,507.28492 1640.974,506.27006 1643.6912,506.27006 1646.8995,506.27006 1649.2238,507.67777 1651.5809,509.08548 1652.7267,511.34436 L 1649.2566,513.7342 Q 1648.6673,512.4247 1647.7179,511.67174 1646.7685,510.88604 1645.6882,510.5914 1644.6078,510.26403 1643.5602,510.26403 1641.8579,510.26403 1640.5811,510.95151 1639.3371,511.639 1638.4859,512.75207 1637.6348,513.86515 1637.2092,515.24012 1636.8163,516.61509 1636.8163,517.99006 1636.8163,519.52872 1637.3074,520.96917 1637.7985,522.37688 1638.6824,523.48995 1639.599,524.57029 1640.843,525.22504 1642.1198,525.84705 1643.6257,525.84705 1644.7061,525.84705 1645.8191,525.48694 1646.9322,525.12683 1647.8816,524.34113 1648.831,523.55543 1649.3548,522.31141 L 1653.0541,524.43934 Q 1652.3666,526.17442 1650.7952,527.38571 1649.2566,528.59699 1647.3251,529.21901 1645.3935,529.84102 1643.4948,529.84102 1641.0067,529.84102 1638.9443,528.82616 1636.8818,527.77856 1635.3759,526.07621 1633.9027,524.34113 1633.0515,522.21319 1632.2331,520.05252 1632.2331,517.85911 Z" />
                <path
                     id="path54"
                     style="font-style:normal;font-variant:normal;font-weight:bold;font-stretch:normal;font-size:32.7374px;font-family:Raleway;-inkscape-font-specification:'Raleway, Bold';font-variant-ligatures:normal;font-variant-caps:normal;font-variant-numeric:normal;font-variant-east-asian:normal;letter-spacing:-0.623965px;word-spacing:0px;fill:#000000;stroke-width:1.47845"
                     d="M 1665.0995,529.80828 Q 1662.5459,529.80828 1660.4507,528.82616 1658.3883,527.84403 1656.8824,526.17442 1655.4092,524.47208 1654.5907,522.37688 1653.7723,520.24895 1653.7723,518.0228 1653.7723,515.69844 1654.6235,513.60325 1655.5074,511.47531 1657.0133,509.83844 1658.552,508.16883 1660.6144,507.21944 1662.7096,506.23732 1665.1977,506.23732 1667.7185,506.23732 1669.7809,507.25218 1671.8761,508.26704 1673.3493,509.96939 1674.8225,511.67174 1675.6409,513.76693 1676.4594,515.86213 1676.4594,518.08828 1676.4594,520.3799 1675.6082,522.50783 1674.757,524.60303 1673.2183,526.27264 1671.7124,527.90951 1669.6172,528.85889 1667.5548,529.80828 1665.0995,529.80828 Z M 1658.3555,518.0228 Q 1658.3555,519.52872 1658.8139,520.93643 1659.2722,522.34414 1660.1234,523.45722 1661.0073,524.53755 1662.2513,525.1923 1663.5281,525.81431 1665.1322,525.81431 1666.7691,525.81431 1668.0458,525.15956 1669.3226,524.47208 1670.1738,523.359 1671.0249,522.21319 1671.4505,520.83822 1671.9088,519.43051 1671.9088,518.0228 1671.9088,516.51688 1671.4178,515.14191 1670.9595,513.7342 1670.0756,512.65386 1669.2244,511.54079 1667.9476,510.91878 1666.7036,510.26403 1665.1322,510.26403 1663.4626,510.26403 1662.1858,510.95151 1660.9418,511.60626 1660.0906,512.71933 1659.2395,513.83241 1658.7811,515.20738 1658.3555,516.58235 1658.3555,518.0228 Z" />
                <path
                     id="path56"
                     style="font-style:normal;font-variant:normal;font-weight:bold;font-stretch:normal;font-size:32.7374px;font-family:Raleway;-inkscape-font-specification:'Raleway, Bold';font-variant-ligatures:normal;font-variant-caps:normal;font-variant-numeric:normal;font-variant-east-asian:normal;letter-spacing:-0.623965px;word-spacing:0px;fill:#000000;stroke-width:1.47845"
                     d="M 1680.8114,506.40101 1687.097,524.27565 1693.3171,506.40101 H 1698.0641 L 1689.2577,529.64459 H 1684.9036 L 1676.0645,506.40101 Z" />
                <path
                     id="path58"
                     style="font-style:normal;font-variant:normal;font-weight:bold;font-stretch:normal;font-size:32.7374px;font-family:Raleway;-inkscape-font-specification:'Raleway, Bold';font-variant-ligatures:normal;font-variant-caps:normal;font-variant-numeric:normal;font-variant-east-asian:normal;letter-spacing:-0.623965px;word-spacing:0px;fill:#000000;stroke-width:1.47845"
                     d="M 1716.0677,525.68336 V 529.64459 H 1699.9281 V 506.40101 H 1715.773 V 510.36224 H 1704.4459 V 515.96034 H 1714.2344 V 519.62694 H 1704.4459 V 525.68336 Z" />
                <path
                     id="path60"
                     style="font-style:normal;font-variant:normal;font-weight:bold;font-stretch:normal;font-size:32.7374px;font-family:Raleway;-inkscape-font-specification:'Raleway, Bold';font-variant-ligatures:normal;font-variant-caps:normal;font-variant-numeric:normal;font-variant-east-asian:normal;letter-spacing:-0.623965px;word-spacing:0px;fill:#000000;stroke-width:1.47845"
                     d="M 1718.9793,529.64459 V 506.40101 H 1729.2589 Q 1730.863,506.40101 1732.2053,507.05576 1733.5802,507.71051 1734.5624,508.82358 1735.5772,509.93665 1736.101,511.31162 1736.6576,512.6866 1736.6576,514.12704 1736.6576,515.60023 1736.1338,516.9752 1735.6427,518.31744 1734.6933,519.3323 1733.7439,520.34716 1732.4672,520.9037 L 1737.7706,529.64459 H 1732.7945 L 1728.0149,521.85308 H 1723.4971 V 529.64459 Z M 1723.4971,517.89185 H 1729.1607 Q 1730.0119,517.89185 1730.6666,517.40079 1731.3213,516.87699 1731.7142,516.02582 1732.107,515.17464 1732.107,514.12704 1732.107,513.01397 1731.6487,512.19554 1731.1904,511.34436 1730.4702,510.8533 1729.7827,510.36224 1728.9643,510.36224 H 1723.4971 Z" />
                <path
                     id="path62"
                     style="font-style:normal;font-variant:normal;font-weight:bold;font-stretch:normal;font-size:32.7374px;font-family:Raleway;-inkscape-font-specification:'Raleway, Bold';font-variant-ligatures:normal;font-variant-caps:normal;font-variant-numeric:normal;font-variant-east-asian:normal;letter-spacing:-0.623965px;word-spacing:0px;fill:#000000;stroke-width:1.47845"
                     d="M 1741.5661,506.40101 1747.2952,517.33531 1753.1224,506.40101 H 1758.0003 L 1749.5541,521.52571 V 529.64459 H 1745.069 V 521.46023 L 1736.6555,506.40101 Z" />
            </g>
            <path
                 sodipodi:nodetypes="cccccccccccccccccc"
                 id="path6"
                 stroke-width="12.647"
                 stroke="#000000"
                 fill="none"
                 d="M 1400.4,460.583 1460.9568,445.36904 1503.6475,417.96583 1533.1196,440.37529 1569.994,412.79212 1604.7386,394.39004 1631.5649,430.53566 1663.8293,400.14603 1716.7803,363.60986 1777.065,344.63153 1829.4714,315.72562 1862.1716,340.55376 1867.7312,366.04795 1891.8618,387.23682 1909.0089,428.97672 1983.569,584.75427 1400.397,585.26674 Z" />
            <g
                 id="g16">
                <path
                     id="path8"
                     d="M 1423.1235,514.9231 1454.0635,482.0431 1471.2515,478.5967 1501.9505,458.1397 1501.527,471.2807 1460.681,514.6167 Z" />
                <path
                     id="path10"
                     d="M 1496.7341,514.8631 1584.0421,438.2781 1599.5421,429.9407 1598.5729,436.6851 1591.5672,444.4352 1592.2059,453.4362 1582.3221,462.7931 1584.0423,493.7591 1562.9683,514.8631 Z" />
                <path
                     sodipodi:nodetypes="cccccccc"
                     id="path12"
                     d="M 1596.2341,514.8631 1677.0951,431.4261 1734.7737,391.40113 1748.7957,389.96653 1719.6841,445.4505 1708.4861,488.1975 1658.2441,514.8635 Z" />
                <path
                     id="path14"
                     d="M 1759.6,417.24 1797.423,361.293 1828.048,345.488 1836.4691,358.467 1835.9793,377.298 1867.8303,405.677 1879.4623,438.782 1922.7083,509.562 1845.0983,505.8938 1792.3143,517.1828 1764.1543,485.4148 1758.2406,462.3598 Z" />
            </g>
        </g>
    </g>
</svg>
