<?xml version="1.0" encoding="UTF-8" standalone="no"?>
<svg
   xmlns:dc="http://purl.org/dc/elements/1.1/"
   xmlns:cc="http://creativecommons.org/ns#"
   xmlns:rdf="http://www.w3.org/1999/02/22-rdf-syntax-ns#"
   xmlns:svg="http://www.w3.org/2000/svg"
   xmlns="http://www.w3.org/2000/svg"
   xmlns:sodipodi="http://sodipodi.sourceforge.net/DTD/sodipodi-0.dtd"
   xmlns:inkscape="http://www.inkscape.org/namespaces/inkscape"
   inkscape:version="1.0 (4035a4fb49, 2020-05-01)"
   height="175"
   width="500"
   sodipodi:docname="logo-solid-ink.svg"
   id="svg4"
   viewBox="0 0 500 175"
   version="1.1">
  <metadata
     id="metadata10">
    <rdf:RDF>
      <cc:Work
         rdf:about="">
        <dc:format>image/svg+xml</dc:format>
        <dc:type
           rdf:resource="http://purl.org/dc/dcmitype/StillImage" />
        <dc:title></dc:title>
      </cc:Work>
    </rdf:RDF>
  </metadata>
  <defs
     id="defs8" />
  <sodipodi:namedview
     inkscape:current-layer="svg4"
     inkscape:window-maximized="1"
     inkscape:window-y="0"
     inkscape:window-x="0"
     inkscape:cy="125"
     inkscape:cx="277.54508"
     inkscape:zoom="2.86"
     showgrid="false"
     id="namedview6"
     inkscape:window-height="1363"
     inkscape:window-width="2560"
     inkscape:pageshadow="2"
     inkscape:pageopacity="0"
     guidetolerance="10"
     gridtolerance="10"
     objecttolerance="10"
     borderopacity="1"
     bordercolor="#666666"
     pagecolor="#ffffff" />
  <path
     style="stroke-width:1.03088"
     id="path2"
     fill="#1e1e1e"
     d="m 401.24585,1.9966504 -27.74104,18.4940246 -40.51367,55.471768 -1.0917,41.596087 4.62041,27.74104 27.74104,27.73073 55.47177,-9.24392 78.58414,4.6235 L 452.09204,94.454403 442.84812,62.09501 410.48874,34.36429 V 15.870261 Z m -78.1821,45.8020896 -13.96846,1.43087 -60.38907,40.596133 -78.58414,83.202487 h 64.70847 l 50.8431,-27.73072 8.37695,-42.21463 z m -148.34394,37.400403 -18.49402,9.24598 -83.2025,78.584137 h 64.70847 l 18.49403,-18.49402 4.6235,-32.35939 4.62351,-9.24392 v -9.24598 l 9.24392,-9.243917 z M 77.651951,117.55853 45.292562,136.05255 26.798537,140.67606 1.418219,173.03545 h 34.62733 l 41.606402,-41.59609 z" />
</svg>
