<?xml version="1.0" encoding="UTF-8" standalone="no"?>
<svg
   xmlns:dc="http://purl.org/dc/elements/1.1/"
   xmlns:cc="http://creativecommons.org/ns#"
   xmlns:rdf="http://www.w3.org/1999/02/22-rdf-syntax-ns#"
   xmlns:svg="http://www.w3.org/2000/svg"
   xmlns="http://www.w3.org/2000/svg"
   xmlns:sodipodi="http://sodipodi.sourceforge.net/DTD/sodipodi-0.dtd"
   xmlns:inkscape="http://www.inkscape.org/namespaces/inkscape"
   inkscape:version="1.0 (4035a4fb49, 2020-05-01)"
   sodipodi:docname="logo-full.svg"
   id="svg4"
   viewBox="0 0 500 250"
   version="1.1">
  <metadata
     id="metadata10">
    <rdf:RDF>
      <cc:Work
         rdf:about="">
        <dc:format>image/svg+xml</dc:format>
        <dc:type
           rdf:resource="http://purl.org/dc/dcmitype/StillImage" />
        <dc:title></dc:title>
      </cc:Work>
    </rdf:RDF>
  </metadata>
  <defs
     id="defs8" />
  <sodipodi:namedview
     inkscape:current-layer="svg4"
     inkscape:window-maximized="1"
     inkscape:window-y="0"
     inkscape:window-x="0"
     inkscape:cy="125"
     inkscape:cx="183.21678"
     inkscape:zoom="2.86"
     showgrid="false"
     id="namedview6"
     inkscape:window-height="1363"
     inkscape:window-width="2560"
     inkscape:pageshadow="2"
     inkscape:pageopacity="0"
     guidetolerance="10"
     gridtolerance="10"
     objecttolerance="10"
     borderopacity="1"
     bordercolor="#666666"
     pagecolor="#ffffff" />
  <path
     style="stroke-width:1.03146"
     id="path2"
     fill="#1e1e1e"
     d="m 379.74799,5.4274156 -43.85789,28.9325934 -23.64118,11.593667 -15.74015,4.053658 -50.52117,32.42926 -36.48291,16.21463 -20.26829,-12.160973 -24.32194,8.106283 -44.59024,28.375606 -20.26828,-8.10628 -36.482924,16.21462 -16.21463,4.05366 -46.7150511,48.64389 v 60.79455 H 499.35667 V 183.77803 L 448.59828,106.76885 436.43731,66.232278 412.11536,37.856676 408.0617,25.695704 Z m 0,28.3756034 8.10628,12.160972 V 62.17862 l 28.3756,24.321945 8.10629,28.375605 40.53658,64.8482 -68.90187,-4.05365 -48.64389,8.10628 -24.32194,-24.32194 -4.05366,-24.32195 0.95781,-36.482918 35.52366,-48.64389 z m -68.55116,40.165247 -25.42561,48.468534 -7.3461,37.01928 -44.59023,24.32195 H 177.094 l 68.90186,-72.95552 52.95541,-35.595856 z M 181.12909,106.75854 v 8.10628 l -8.10628,8.10629 v 8.10628 l -4.05367,8.10628 -4.05365,28.3756 -16.21463,16.21464 H 91.959964 l 72.955526,-68.90187 z m -85.116502,28.3756 v 12.16097 L 59.529672,183.77803 H 29.163343 l 22.259014,-28.3756 16.21463,-4.05366 z m 79.618792,64.89978 c 2.24137,0 4.27748,0.45055 6.11246,1.35328 1.86282,0.90253 3.45128,2.10935 4.76125,3.62354 1.30996,1.51419 2.32801,3.20372 3.05623,5.06656 0.7278,1.86282 1.09129,3.78444 1.09129,5.76382 0,2.03817 -0.37835,4.00208 -1.13565,5.89379 -0.75689,1.86282 -1.8195,3.53792 -3.18826,5.02324 -1.33884,1.45539 -2.93967,2.60548 -4.8025,3.45024 -1.83395,0.84426 -3.84221,1.26768 -6.02582,1.26768 -2.27026,0 -4.33731,-0.43786 -6.20013,-1.31099 -1.83395,-0.87345 -3.42137,-2.05262 -4.76125,-3.53793 -1.30996,-1.51419 -2.32802,-3.20166 -3.05623,-5.0645 -0.7278,-1.89274 -1.09335,-3.8288 -1.09335,-5.80817 0,-2.06706 0.37834,-4.03097 1.13565,-5.89379 0.78597,-1.89274 1.84838,-3.56681 3.18825,-5.02324 1.36876,-1.48427 2.97062,-2.64983 4.80457,-3.49357 1.86282,-0.87345 3.90203,-1.30893 6.11452,-1.30893 z m 61.60941,0 c 1.45539,0 2.82414,0.15946 4.10523,0.47963 1.30996,0.32027 2.53225,0.74317 3.66788,1.26767 1.13565,0.52409 2.15577,1.09129 3.0583,1.70295 l -2.66427,4.89121 c -0.20372,-0.20372 -0.58226,-0.48015 -1.13565,-0.8295 -0.52409,-0.34937 -1.17896,-0.68521 -1.96494,-1.00538 -0.75699,-0.32016 -1.58846,-0.5966 -2.49098,-0.8295 -0.90244,-0.262 -1.81848,-0.39381 -2.7499,-0.39381 -1.63074,0 -2.86747,0.30604 -3.71121,0.91749 -0.81506,0.61134 -1.22331,1.46983 -1.22331,2.57659 0,0.84425 0.26158,1.51419 0.78556,2.00826 0.52409,0.4949 1.30996,0.9179 2.35896,1.26768 1.04797,0.34935 2.3569,0.7277 3.92989,1.13564 2.03817,0.4949 3.79991,1.10676 5.28419,1.83497 1.51419,0.69872 2.66428,1.62972 3.45025,2.79425 0.81516,1.13563 1.22331,2.64879 1.22331,4.54153 0,1.65964 -0.30602,3.08615 -0.91737,4.27955 -0.61135,1.16452 -1.4554,2.11038 -2.53225,2.83859 -1.07685,0.7278 -2.29914,1.26768 -3.6679,1.61734 -1.36875,0.32028 -2.82414,0.47964 -4.36722,0.47964 -1.54307,0 -3.08614,-0.15947 -4.62921,-0.47964 -1.54307,-0.32027 -3.02838,-0.77081 -4.45489,-1.35328 -1.42653,-0.61135 -2.73545,-1.3409 -3.92989,-2.18464 l 2.66428,-5.19652 c 0.26208,0.26199 0.72748,0.61269 1.39659,1.049 0.66963,0.40752 1.48325,0.82836 2.44458,1.2656 0.96071,0.40764 2.00826,0.75834 3.14391,1.049 1.13563,0.29118 2.28572,0.4357 3.45024,0.4357 1.63075,0 2.86954,-0.27634 3.71328,-0.82951 0.84426,-0.55318 1.26458,-1.33987 1.26458,-2.35897 0,-0.93161 -0.33369,-1.65858 -1.00331,-2.18257 -0.66963,-0.52399 -1.6029,-0.9767 -2.7963,-1.35535 -1.19341,-0.40742 -2.60446,-0.84332 -4.2352,-1.30892 -1.95049,-0.55318 -3.58022,-1.16556 -4.8912,-1.83498 -1.30996,-0.69872 -2.28573,-1.57196 -2.92628,-2.61992 -0.64053,-1.04797 -0.96132,-2.3569 -0.96132,-3.92988 0,-2.12482 0.49521,-3.90204 1.48531,-5.32855 1.01899,-1.4554 2.38785,-2.54566 4.10523,-3.27387 1.71739,-0.75689 3.62458,-1.13565 5.72051,-1.13565 z m 122.53804,0 c 2.24137,0 4.28058,0.45055 6.11452,1.35328 1.86283,0.90253 3.44922,2.10935 4.75919,3.62354 1.30996,1.51419 2.33007,3.20372 3.05828,5.06656 0.72791,1.86282 1.0913,3.78444 1.0913,5.76382 0,2.03817 -0.37825,4.00208 -1.13565,5.89379 -0.75699,1.86282 -1.8195,3.53792 -3.18826,5.02324 -1.33884,1.45539 -2.93967,2.60548 -4.80249,3.45024 -1.83395,0.84426 -3.84221,1.26768 -6.02582,1.26768 -2.27129,0 -4.33835,-0.43786 -6.2022,-1.31099 -1.83395,-0.87345 -3.41931,-2.05262 -4.75918,-3.53793 -1.30996,-1.51419 -2.33009,-3.20166 -3.0583,-5.0645 -0.7278,-1.89274 -1.09129,-3.8288 -1.09129,-5.80817 0,-2.06706 0.37824,-4.03097 1.13564,-5.89379 0.78599,-1.89274 1.84839,-3.56681 3.18826,-5.02324 1.36876,-1.48427 2.96856,-2.64983 4.80251,-3.49357 1.86282,-0.87345 3.90099,-1.30893 6.11452,-1.30893 z m -28.68504,0.044 c 2.85303,0 5.31204,0.62486 7.37909,1.87727 2.09595,1.2522 3.65449,2.88191 4.67255,4.89121 l -4.62922,3.18825 c -0.52409,-1.16453 -1.20888,-2.08046 -2.05262,-2.74989 -0.84425,-0.69871 -1.74523,-1.17896 -2.70656,-1.44095 -0.96071,-0.29108 -1.90821,-0.43776 -2.84066,-0.43776 -1.51418,0 -2.83756,0.30604 -3.97319,0.91739 -1.10574,0.61135 -2.03715,1.41311 -2.79425,2.40228 -0.75689,0.9898 -1.3244,2.09491 -1.70295,3.31822 -0.34946,1.22229 -0.52357,2.44458 -0.52357,3.66789 0,1.36876 0.21671,2.6942 0.65353,3.97527 0.43673,1.2522 1.049,2.37237 1.83499,3.36155 0.81506,0.9607 1.77617,1.73182 2.88191,2.31461 1.13564,0.55317 2.37237,0.8295 3.71121,0.8295 0.96071,0 1.93606,-0.15946 2.92627,-0.47964 0.98989,-0.32026 1.9082,-0.83032 2.75195,-1.52862 0.84373,-0.6983 1.49871,-1.60187 1.96493,-2.70863 l 4.93454,2.84065 c -0.61146,1.54308 -1.61631,2.852 -3.01395,3.92989 -1.36772,1.07685 -2.91182,1.89171 -4.62921,2.44457 -1.7174,0.55317 -3.42034,0.83156 -5.10885,0.83156 -2.21249,0 -4.23623,-0.45271 -6.07018,-1.35535 -1.83393,-0.93161 -3.42136,-2.15369 -4.76123,-3.66788 -1.30996,-1.54308 -2.34349,-3.26046 -3.09956,-5.1532 -0.7278,-1.92162 -1.09129,-3.85768 -1.09129,-5.80818 0,-1.89274 0.33574,-3.74112 1.00538,-5.54618 0.69871,-1.83395 1.70191,-3.49461 3.01187,-4.97889 1.30996,-1.51418 2.9108,-2.70657 4.80251,-3.57918 1.89273,-0.90244 4.04746,-1.35329 6.46418,-1.35329 z m -311.399296,0.17391 h 20.835593 v 5.28419 H 25.728564 v 7.99076 h 12.315692 v 4.89121 H 25.728564 v 12.84174 h -6.025818 z m 24.229113,0 h 6.027882 v 25.72473 h 15.812358 v 5.28213 h 1.967004 l 11.438947,-31.00584 h 6.114524 l 11.397689,31.00584 h -6.202199 l -2.881914,-7.72877 H 76.767516 l -2.840655,7.72877 h -8.167139 1.967003 -23.806212 z m 49.830079,0 h 25.807254 v 5.28419 h -9.91341 v 25.71443 h -5.9825 v -25.71443 h -9.913408 z m 28.819134,0 h 6.02582 v 31.00583 h -6.02582 z m 11.65556,0 h 13.70817 c 1.42651,0 2.73543,0.29117 3.92987,0.87344 1.22229,0.58226 2.27026,1.36876 3.14391,2.35896 0.90243,0.9898 1.5864,2.09491 2.05261,3.31822 0.495,1.22229 0.74359,2.47448 0.74359,3.75557 0,1.30996 -0.23373,2.5766 -0.69964,3.79991 -0.43672,1.19341 -1.07685,2.24137 -1.9206,3.14391 -0.84425,0.90254 -1.83497,1.60186 -2.97061,2.09697 l 7.07378,11.65555 h -6.63541 l -6.37549,-10.39717 h -6.02581 v 10.39717 h -6.02789 z m 60.21692,0 h 4.8025 l 16.02897,20.43332 v -20.39206 h 6.02582 v 30.96457 h -5.02324 l -15.81236,-19.90727 v 19.90727 h -6.02582 z m 70.21183,0 h 13.70816 c 1.42652,0 2.73751,0.29117 3.93195,0.87344 1.22331,0.58226 2.27026,1.36876 3.14391,2.35896 0.90252,0.9898 1.58638,2.09491 2.05261,3.31822 0.4949,1.22229 0.74152,2.47448 0.74152,3.75557 0,1.30996 -0.23167,2.5766 -0.69758,3.79991 -0.43673,1.19341 -1.07892,2.24137 -1.92265,3.14391 -0.84425,0.90254 -1.83291,1.60186 -2.96856,2.09697 l 7.07379,11.65555 h -6.63748 l -6.37548,-10.39717 h -6.02582 v 10.39717 h -6.02582 z m 28.21056,0 h 21.13472 v 5.28419 h -15.11096 v 7.46677 h 13.05834 v 4.89121 h -13.05834 v 8.07843 h 15.50291 v 5.28213 h -21.52667 z m 81.43416,0 h 6.33217 l 8.38272,23.84747 8.29916,-23.84747 h 6.33217 l -11.74839,31.00583 h -5.80612 z m 31.83101,0 h 21.13472 v 5.28419 h -15.11096 v 7.46677 h 13.05835 v 4.89121 h -13.05835 v 8.07843 h 15.50292 v 5.28213 h -21.52668 z m 25.4153,0 h 13.71849 c 1.42652,0 2.73544,0.29117 3.92988,0.87344 1.22229,0.58226 2.27026,1.36876 3.14391,2.35896 0.90242,0.9898 1.58639,2.09491 2.05261,3.31822 0.4949,1.22229 0.74359,2.47448 0.74359,3.75557 0,1.30996 -0.23384,2.5766 -0.69955,3.79991 -0.43683,1.19341 -1.07685,2.24137 -1.92059,3.14391 -0.84425,0.90254 -1.83497,1.60186 -2.97061,2.09697 l 7.07378,11.65555 h -6.63748 l -6.37342,-10.39717 h -6.02788 v 10.39717 h -6.02582 z m 23.57929,0 h 6.55186 l 7.6411,14.58491 7.77313,-14.58491 h 6.5075 l -11.2636,20.17546 v 10.83037 h -5.98455 V 220.34474 Z M 175.49729,205.404 c -1.48428,0 -2.79424,0.30602 -3.92988,0.91737 -1.10676,0.58227 -2.03921,1.36876 -2.7963,2.35897 -0.7569,0.98979 -1.33885,2.0949 -1.74731,3.31822 -0.37854,1.22228 -0.56761,2.47448 -0.56761,3.75557 0,1.33883 0.20402,2.63538 0.61156,3.88758 0.40762,1.2522 0.98989,2.37238 1.7473,3.36155 0.78597,0.96071 1.73182,1.73183 2.83858,2.31461 1.13565,0.55317 2.41673,0.8295 3.84325,0.8295 1.4554,0 2.74988,-0.29118 3.88552,-0.87344 1.13565,-0.61135 2.08356,-1.41105 2.84066,-2.40022 0.75699,-1.01899 1.3244,-2.14132 1.70295,-3.36361 0.40764,-1.2522 0.61166,-2.50336 0.61166,-3.75556 0,-1.33885 -0.21888,-2.6189 -0.6556,-3.84118 -0.40763,-1.2522 -1.00486,-2.35896 -1.79062,-3.32029 -0.7569,-0.98979 -1.70295,-1.76173 -2.8386,-2.3146 -1.10676,-0.58226 -2.35792,-0.87345 -3.75556,-0.87345 z m 184.21965,0 c -1.48428,0 -2.79424,0.30602 -3.92988,0.91737 -1.10676,0.58227 -2.03715,1.36876 -2.79424,2.35897 -0.75689,0.98979 -1.33884,2.0949 -1.74731,3.31822 -0.37844,1.22228 -0.56761,2.47448 -0.56761,3.75557 0,1.33883 0.20403,2.63538 0.61166,3.88758 0.40753,1.2522 0.99,2.37238 1.7473,3.36155 0.78609,0.96071 1.73184,1.73183 2.8386,2.31461 1.13564,0.55317 2.41466,0.8295 3.84117,0.8295 1.4554,0 2.75195,-0.29118 3.8876,-0.87344 1.13563,-0.61135 2.08148,-1.41105 2.83858,-2.40022 0.75689,-1.01899 1.3244,-2.14132 1.70295,-3.36361 0.40754,-1.2522 0.61156,-2.50336 0.61156,-3.75556 0,-1.33885 -0.21898,-2.6189 -0.6556,-3.84118 -0.40753,-1.2522 -1.00279,-2.35896 -1.78856,-3.32029 -0.75689,-0.98979 -1.70501,-1.76173 -2.84066,-2.3146 -1.10676,-0.58226 -2.35792,-0.87345 -3.75556,-0.87345 z m -219.49576,0.13191 v 10.04338 h 7.55342 c 0.757,0 1.42652,-0.21898 2.00827,-0.6556 0.58236,-0.46581 1.05003,-1.07788 1.39866,-1.83497 0.34936,-0.75699 0.52368,-1.60084 0.52368,-2.53225 0,-0.98979 -0.20403,-1.84839 -0.61166,-2.5766 -0.40753,-0.75699 -0.93265,-1.35431 -1.57298,-1.79062 -0.61146,-0.43663 -1.28109,-0.65354 -2.00827,-0.65354 z m 130.48032,0 v 10.04338 h 7.55549 c 0.75689,0 1.42652,-0.21898 2.00827,-0.6556 0.58226,-0.46581 1.04796,-1.07788 1.3966,-1.83497 0.34946,-0.75699 0.52367,-1.60084 0.52367,-2.53225 0,-0.98979 -0.20413,-1.84839 -0.61166,-2.5766 -0.40774,-0.75699 -0.93049,-1.35431 -1.57092,-1.79062 -0.61135,-0.43663 -1.28108,-0.65354 -2.00826,-0.65354 z m 166.89105,0 v 10.04338 h 7.55548 c 0.75699,0 1.42651,-0.21898 2.00826,-0.6556 0.58216,-0.46581 1.04797,-1.07788 1.3966,-1.83497 0.34936,-0.75699 0.52574,-1.60084 0.52574,-2.53225 0,-0.98979 -0.20403,-1.84839 -0.61155,-2.5766 -0.40764,-0.75699 -0.93265,-1.35431 -1.57299,-1.79062 -0.61145,-0.43663 -1.28107,-0.65354 -2.00826,-0.65354 z m -355.339703,0.95937 -4.454898,12.80049 h 8.734446 z" />
</svg>
