<?xml version="1.0" encoding="UTF-8" standalone="no"?>
<svg
     xmlns:dc="http://purl.org/dc/elements/1.1/"
     xmlns:cc="http://creativecommons.org/ns#"
     xmlns:rdf="http://www.w3.org/1999/02/22-rdf-syntax-ns#"
     xmlns:svg="http://www.w3.org/2000/svg"
     xmlns="http://www.w3.org/2000/svg"
     xmlns:sodipodi="http://sodipodi.sourceforge.net/DTD/sodipodi-0.dtd"
     xmlns:inkscape="http://www.inkscape.org/namespaces/inkscape"
     sodipodi:docname="mt-1.svg"
     inkscape:version="1.0 (4035a4fb49, 2020-05-01)"
     id="svg8"
     version="1.1"
     viewBox="0 0 2031.9744 1142.9856"
     height="4320"
     width="7680">
    <defs
         id="defs2" />
    <sodipodi:namedview
         inkscape:window-maximized="1"
         inkscape:window-y="0"
         inkscape:window-x="0"
         inkscape:window-height="1359"
         inkscape:window-width="2560"
         guidetolerance="1"
         objecttolerance="1"
         units="px"
         inkscape:pagecheckerboard="true"
         inkscape:showpageshadow="false"
         showborder="true"
         showgrid="false"
         inkscape:document-rotation="0"
         inkscape:current-layer="layer1"
         inkscape:document-units="px"
         inkscape:cy="788.83426"
         inkscape:cx="2011.7732"
         inkscape:zoom="0.125"
         inkscape:pageshadow="2"
         inkscape:pageopacity="0.0"
         borderopacity="1.0"
         bordercolor="#666666"
         pagecolor="#ffffff"
         id="base" />
    <metadata
         id="metadata5">
        <rdf:RDF>
            <cc:Work
                 rdf:about="">
                <dc:format>image/svg+xml</dc:format>
                <dc:type
                     rdf:resource="http://purl.org/dc/dcmitype/StillImage" />
                <dc:title></dc:title>
            </cc:Work>
        </rdf:RDF>
    </metadata>
    <g
         style="opacity:1"
         id="layer1"
         inkscape:groupmode="layer"
         inkscape:label="main">
        <path
             id="path1061"
             d="M -22.106253,-13.508544 V 1171.6808 H 2059.4328 V -17.203966 Z"
             style="fill:#d5e5ff;stroke:none;stroke-width:0.307036px;stroke-linecap:butt;stroke-linejoin:miter;stroke-opacity:1" />
        <g
             transform="matrix(1.1422258,0,0,1.1422258,-174.47161,211.33104)"
             id="g1080">
            <path
                 style="fill:#6c5d53;stroke:none;stroke-width:4.12054px;stroke-linecap:butt;stroke-linejoin:miter;stroke-opacity:1"
                 d="M 371.00758,500.86339 407.82996,453.67445 442.7269,443.36608 508.28727,396.18913 C 519.88435,430.54751 535.06455,413.47819 552.71653,387.59857 L 585.39697,387.49656 622.72992,353.39484 683.33286,349.28021 765.28925,316.8868 C 885.65611,293.05747 881.71339,361.29268 1196.5957,219.28917 1196.5957,219.28917 1444.1665,376.74744 1731.7122,323.98274 1751.8652,320.28471 1793.1208,321.27786 1793.1208,321.27786 L 1828.4499,344.60991 1902.8788,314.60195 1936.285,329.92745 1955.2701,325.05839 1954.9734,420.70032 1953.5323,783.3067 299.93967,783.91985 Z"
                 id="path100"
                 sodipodi:nodetypes="ccccccccccsccccccccc" />
            <g
                 id="g975"
                 transform="matrix(15.573908,0,0,15.573908,-11341.833,-1972.6423)">
                <path
                     id="path954"
                     d="M 801.57599,154.37986 803.34634,152.76813 803.07166,151.84175 804.90911,151.34034 806.73157,151.65197 C 806.73157,151.65197 808.0528,150.72344 808.45147,150.5244 808.85014,150.32537 809.53199,149.73492 809.53199,149.73492 L 808.65318,149.02161 C 808.65318,149.02161 810.08223,148.92428 810.35404,149.06366 810.62581,149.20304 811.41318,149.6211 811.60193,149.6211 811.79065,149.6211 814.47389,148.73642 814.47389,148.73642 814.47389,148.73642 815.15942,149.3667 815.84621,149.97968 816.53298,150.59266 816.75542,150.97479 816.75542,150.97479 L 817.32471,150.80531 819.66344,150.35757 820.83601,151.50704 825.23388,153.77845 825.67719,154.73915 824.5373,154.70733 824.27827,155.26648 V 155.53896 L 823.22562,157.02934 800.79058,159.66665 Z"
                     style="fill:#c8beb7;fill-opacity:1;stroke:none;stroke-width:0.26458px;stroke-linecap:butt;stroke-linejoin:miter;stroke-opacity:1" />
                <path
                     id="path82"
                     d="M 753.4369,159.64112 757.35872,154.9976 757.96527,156.1249 757.22402,158.53923 757.55064,159.26652 755.41067,160.37403 Z"
                     style="fill:#c8beb7;stroke:none;stroke-width:0.26458px;stroke-linecap:butt;stroke-linejoin:miter;stroke-opacity:1" />
                <path
                     id="path84"
                     d="M 758.54139,158.44584 763.34571,152.73355 763.65162,153.23767 764.98383,151.81393 765.10308,152.19038 763.50361,153.97457 762.03898,155.54994 759.97385,158.01657 Z"
                     style="fill:#c8beb7;stroke:none;stroke-width:0.26458px;stroke-linecap:butt;stroke-linejoin:miter;stroke-opacity:1" />
                <path
                     id="path86"
                     d="M 762.75721,156.86256 764.5727,154.54662 764.82347,153.81344 765.46891,153.55302 765.91714,153.06618 764.43456,153.55165 763.29549,155.20404 Z"
                     style="fill:#c8beb7;stroke:none;stroke-width:0.26458px;stroke-linecap:butt;stroke-linejoin:miter;stroke-opacity:1" />
                <path
                     id="path88"
                     d="M 767.49729,152.27456 768.82363,150.63502 768.76444,149.94386 767.70887,150.86054 Z"
                     style="fill:#c8beb7;stroke:none;stroke-width:0.26458px;stroke-linecap:butt;stroke-linejoin:miter;stroke-opacity:1" />
                <path
                     id="path90"
                     d="M 763.48922,157.68203 762.15174,158.65161 761.68462,160.0713 762.51427,159.63825 762.88172,159.62197 763.44765,159.15172 764.23716,158.30359 764.4356,157.66745 Z"
                     style="fill:#c8beb7;stroke:none;stroke-width:0.26458px;stroke-linecap:butt;stroke-linejoin:miter;stroke-opacity:1" />
                <path
                     id="path92"
                     d="M 763.49737,159.57449 764.70208,159.10067 765.39218,159.24719 766.41164,158.21427 766.64042,157.6155 767.87434,158.12119 768.182,156.88699 769.44465,156.19507 770.14312,154.74605 772.11204,155.63985 773.27831,154.4971 775.00848,154.56325 776.09572,155.04421 776.40059,154.5837 776.96743,153.22318 776.23279,151.94474 C 776.23279,151.94474 775.43702,149.50692 776.02925,147.69744 776.62149,145.88795 774.34435,148.14804 774.34435,148.14804 L 773.42401,148.16357 772.24774,149.69985 771.40876,149.95749 765.04643,157.16577 Z"
                     style="fill:#c8beb7;stroke:none;stroke-width:0.26458px;stroke-linecap:butt;stroke-linejoin:miter;stroke-opacity:1" />
                <path
                     id="path96"
                     d="M 785.83271,147.57991 778.7912,153.54397 778.27125,154.84979 777.01341,155.1361 777.07112,156.52877 777.92507,157.10209 778.76128,156.40305 779.14923,155.19096 781.20243,154.73237 783.49604,153.8575 785.76836,152.63445 787.50655,152.9482 788.56897,151.66124 791.87119,147.21647 790.97617,144.21002 787.53563,147.56306 786.82951,146.60319 Z"
                     style="fill:#c8beb7;stroke:none;stroke-width:0.26458px;stroke-linecap:butt;stroke-linejoin:miter;stroke-opacity:1" />
                <path
                     id="path98"
                     d="M 801.40962,139.31887 800.27997,139.77979 798.66013,142.63426 797.94571,143.45951 796.86686,146.27252 795.5007,147.54856 795.23641,149.36792 794.78361,151.0676 794.24474,151.52343 795.61352,152.58273 795.29626,155.13455 796.53457,153.90627 797.98953,154.26839 799.31116,152.53176 801.09657,150.87532 803.66511,148.85217 804.53537,150.0165 805.73127,148.89649 807.83661,147.82532 809.64845,147.69204 810.78065,145.73033 810.8688,144.33075 809.97902,144.09708 808.707,144.49767 808.29904,142.78224 805.42938,141.06384 804.96147,140.50558 805.23497,139.96071 804.38916,139.45169 802.11713,138.68004 Z"
                     style="fill:#c8beb7;stroke:none;stroke-width:0.26458px;stroke-linecap:butt;stroke-linejoin:miter;stroke-opacity:1" />
                <path
                     id="path958"
                     d="M 828.27642,150.39097 829.74418,150.92214 831.76221,150.25071 833.29998,149.74251 834.35155,150.03012 835.43924,150.37578 836.05748,150.44161 836.69943,151.24872 836.8749,151.88791 834.93503,152.26898 833.67859,152.26941 832.64384,152.50443 830.88417,152.05041 830.72979,151.42793 828.96076,151.47223 Z"
                     style="fill:#c8beb7;fill-opacity:1;stroke:none;stroke-width:0.26458px;stroke-linecap:butt;stroke-linejoin:miter;stroke-opacity:1" />
                <path
                     id="path949"
                     d="M 776.45319,159.3157 784.82514,154.31916 786.98083,155.39196 788.25957,156.71693 789.23759,157.57804 790.13375,157.20939 791.23721,157.08061 791.68273,157.76914 786.82187,160.39767 777.18354,162.88131 Z"
                     style="opacity:1;fill:#c8beb7;fill-opacity:1;stroke:none;stroke-width:0.26458px;stroke-linecap:butt;stroke-linejoin:miter;stroke-opacity:1" />
                <path
                     sodipodi:nodetypes="cccccccccccccccccccccccccc"
                     id="path960"
                     d="M 834.15086,148.42162 836.02086,148.95415 837.2777,148.22524 839.01009,148.04035 839.25467,148.28659 840.72639,147.62237 842.48148,148.41788 843.75808,149.53454 844.78735,149.82326 845.4842,150.1523 846.1864,149.47344 847.04202,149.6628 847.68387,149.22229 849.14266,149.63808 849.78984,149.79219 850.2209,149.47289 850.82996,149.70127 852.63294,149.16123 853.84241,149.4381 V 147.47603 L 852.77767,147.81311 850.27688,146.76649 845.90594,148.69158 843.36648,147.12714 839.5248,147.31026 Z"
                     style="fill:#c8beb7;fill-opacity:1;stroke:none;stroke-width:0.26458px;stroke-linecap:butt;stroke-linejoin:miter;stroke-opacity:1" />
                <path
                     id="path952"
                     d="M 779.59082,151.18708 780.85948,150.04723 780.75859,149.50154 780.6697,148.9493 779.36428,149.97521 Z"
                     style="fill:#c8beb7;fill-opacity:1;stroke:none;stroke-width:0.26458px;stroke-linecap:butt;stroke-linejoin:miter;stroke-opacity:1" />
            </g>
            <path
                 style="fill:#222b00;stroke:none;stroke-width:4.12054px;stroke-linecap:butt;stroke-linejoin:miter;stroke-opacity:1"
                 d="M 136.08261,450.38361 137.98225,445.04989 140.27639,449.68957 143.27365,439.52613 145.88754,446.53875 149.85386,436.00182 154.27553,444.43908 157.66958,437.24312 160.89036,444.29843 164.33732,438.68891 167.12208,444.43228 171.78386,436.7384 173.59495,441.43382 177.65383,434.24759 180.75443,439.10536 184.1142,431.81942 186.32034,436.30202 189.74453,432.41051 193.53718,439.39567 196.59537,436.70106 199.14815,440.35511 203.13404,440.93899 204.55647,446.67998 209.43405,442.31126 213.1096,453.60396 216.08407,451.68215 219.86798,461.34662 222.44742,454.97288 226.2834,456.06416 228.13135,448.95112 231.13548,456.44776 237.75104,447.72005 242.20587,455.70112 249.23634,446.28331 253.7722,457.24378 260.04437,454.84553 266.76883,470.36929 270.61054,466.22329 274.46958,472.9567 277.58927,469.73003 280.38397,473.4766 282.12533,471.30525 284.72614,480.97457 286.42212,478.06846 288.082,479.51201 292.39451,470.42228 299.97335,475.04453 303.35534,472.79329 309.55158,464.38572 315.10445,472.46499 321.44195,476.01164 323.8492,481.0308 326.92536,472.77912 336.32048,484.30568 344.89049,478.63599 351.88816,485.39757 356.4686,476.96071 365.29979,491.18187 370.46364,491.15197 375.95003,490.80171 381.64618,497.92631 387.19966,494.93269 391.12415,502.28576 397.37023,499.0945 401.24953,506.72915 405.19387,501.91837 408.98665,514.68383 413.3428,521.45786 419.45537,519.0372 425.06577,524.89642 430.32914,520.23095 435.10574,525.5147 440.04485,533.304 443.37208,528.01774 450.74147,533.03347 456.95922,522.82868 465.31748,524.32751 468.36136,515.06804 473.80145,509.23499 478.31994,513.49834 482.75012,518.55442 489.26166,513.97459 496.21651,519.46331 505.70073,514.48293 513.03965,507.85872 519.86724,511.2311 523.7747,520.20182 536.22252,517.24994 543.74561,524.28405 548.87129,520.21879 556.54491,521.58026 563.93484,518.37952 569.50236,530.09748 576.29118,522.49088 583.66998,528.27455 591.53941,521.52264 603.74676,526.35585 616.34529,519.53355 625.29806,522.76498 628.89863,512.85172 633.48371,515.01291 636.53306,509.06601 639.58806,505.1635 641.00217,496.95402 644.50861,498.00138 648.92714,491.07815 653.94285,502.21084 660.72688,498.91759 667.13735,487.53431 671.76205,496.30335 679.72561,482.32593 686.74387,484.3851 693.59927,479.4977 702.62607,475.08203 706.07637,482.07067 711.82968,482.41905 720.67942,491.89126 728.00131,486.142 736.93277,495.57184 747.53817,493.82819 756.46869,503.38371 767.60998,501.57231 770.82827,513.54491 778.33287,508.85608 783.99761,517.66312 791.53534,514.45209 796.94727,526.47998 803.66481,518.01524 806.37125,522.09794 808.79279,512.82789 812.51514,516.01291 817.29551,501.16661 822.8062,507.72603 830.22685,496.6466 833.31498,507.15026 838.1484,501.54475 840.47076,507.62839 844.35254,508.73771 847.50673,519.59242 851.91817,512.07318 858.83801,519.83459 865.06192,524.31785 868.4055,535.61361 875.66483,530.09686 879.59223,514.86963 887.45395,523.88381 895.74118,511.00527 905.96343,512.20057 914.21677,498.05884 924.69884,505.85779 933.27267,490.21084 945.08011,496.23109 956.54215,481.57448 965.96261,496.96119 975.93403,478.3401 980.88173,486.07736 989.74483,482.96803 996.48103,469.34165 1006.8041,476.28745 1016.0705,465.18278 1027.69,473.68302 1037.6314,464.24041 1045.7641,473.97675 1058.7006,460.25318 1064.9735,469.72601 1078.329,469.86945 1083.1228,462.54831 1091.3411,470.168 1103.0761,469.60033 1108.7196,457.32949 1118.6885,468.29087 1131.2034,456.54176 1141.2192,467.26035 1147.263,463.74781 1150.7308,451.6243 1154.9403,458.58054 1163.3976,462.72787 1173.2446,444.47463 1181.7728,456.16674 1186.525,446.49488 1193.3705,457.53226 1200.136,446.38041 1208.3251,457.53102 1212.4015,446.71167 1221.3833,462.25816 1230.0147,453.91429 1236.6601,457.65421 1240.267,451.14914 1250.0061,460.42963 1262.6271,447.50111 1265.7481,462.19712 1270.6559,469.98251 1280.6507,461.57198 1288.6758,468.55143 1299.9823,452.02797 1306.8437,462.86742 1318.1136,455.10445 1334.2506,460.7992 1351.0811,452.89435 1357.4421,459.96023 1367.3041,462.87442 1381.6712,452.76353 1389.2317,457.76665 1396.3955,450.43165 1403.0344,456.91647 1409.6382,457.39428 1426.2932,446.39567 1437.5924,453.52541 1452.4604,447.70731 1465.4552,441.29428 1468.9321,448.41468 1477.3412,453.11955 1486.9123,446.08513 1498.6237,447.43943 1509.1368,445.8822 1511.2883,441.03919 1516.3853,432.69686 1527.8179,439.7967 1543.8471,435.26033 1554.8066,444.52151 1562.5264,442.45267 1573.9033,445.31812 1581.177,453.60313 1589.3242,440.47447 1603.3393,451.0001 1610.2125,442.48802 1622.0811,444.45423 1632.379,432.38741 1641.1328,436.75823 1645.0577,429.83142 1651.5873,440.61963 1658.6324,437.76539 1664.9246,430.79124 1672.6799,441.3952 1680.324,444.25177 1689.0757,442.296 1695.3582,432.50204 1702.5158,440.42199 1715.762,441.95524 1720.7804,449.69812 1728.141,452.69018 1732.8238,435.89933 1737.8585,442.90618 1742.1022,438.00507 1748.3481,445.57757 1754.3528,439.3477 1762.4564,443.94543 1766.9658,433.88904 1777.0166,435.08372 1784.0516,429.87238 1796.8976,441.60622 1801.8636,429.22575 1805.3369,432.21345 1808.8915,423.25097 1813.8627,424.32106 1818.9127,411.71834 1823.033,422.42494 1832.7806,414.49439 1840.856,421.61836 1850.0927,420.85789 1853.9424,413.48801 1858.906,424.8389 1866.1809,433.28899 1873.2623,422.10349 1880.7084,427.60404 1885.4589,423.04431 1897.0157,428.32745 1907.8386,421.31436 1916.3071,426.36093 1922.562,420.59173 1928.3291,408.58908 1937.2099,413.90928 1943.5371,414.31514 1952.1565,412.88483 1955.148,422.2379 V 837.32394 L 135.8547,837.32209 C 135.8122,708.27099 136.08261,450.38361 136.08261,450.38361 Z"
                 id="path102"
                 sodipodi:nodetypes="cccccccccccccccccccccccccccccccccccccccccccccccccccccccccccccccccccccccccccccccccccccccccccccccccccccccccccccccccccccccccccccccccccccccccccccccccccccccccccccccccccccccccccccccccccccccccccccccccccccccccccccccccccccccccccccccccccccccccccccccccccccccccccccccccccccccccccccccccccccc" />
            <path
                 style="fill:#ffdd55;stroke:none;stroke-width:4.12054px;stroke-linecap:butt;stroke-linejoin:miter;stroke-opacity:1"
                 d="M 746.73508,657.30045 C 993.67696,627.86489 1161.2456,496.50131 1367.6887,531.25714 1555.7631,562.9205 1789.768,591.60793 1954.7228,526.82416 L 1955.148,837.32394 135.8547,837.21483 V 545.73415 C 404.36427,551.01697 442.27656,693.59202 746.73508,657.30045 Z"
                 id="path104"
                 sodipodi:nodetypes="ssccccs" />
        </g>
    </g>
</svg>
