<?xml version="1.0" encoding="UTF-8" standalone="no"?>
<svg
   xmlns:dc="http://purl.org/dc/elements/1.1/"
   xmlns:cc="http://creativecommons.org/ns#"
   xmlns:rdf="http://www.w3.org/1999/02/22-rdf-syntax-ns#"
   xmlns:svg="http://www.w3.org/2000/svg"
   xmlns="http://www.w3.org/2000/svg"
   xmlns:sodipodi="http://sodipodi.sourceforge.net/DTD/sodipodi-0.dtd"
   xmlns:inkscape="http://www.inkscape.org/namespaces/inkscape"
   version="1.1"
   viewBox="0 0 500 500"
   id="svg1024"
   sodipodi:docname="favicon.svg"
   width="500"
   height="500"
   inkscape:export-filename="/home/juanos/Desktop/favicon.png"
   inkscape:export-xdpi="96"
   inkscape:export-ydpi="96"
   inkscape:version="0.92.5 (2060ec1f9f, 2020-04-08)">
  <metadata
     id="metadata1030">
    <rdf:RDF>
      <cc:Work
         rdf:about="">
        <dc:format>image/svg+xml</dc:format>
        <dc:type
           rdf:resource="http://purl.org/dc/dcmitype/StillImage" />
        <dc:title></dc:title>
      </cc:Work>
    </rdf:RDF>
  </metadata>
  <defs
     id="defs1028" />
  <sodipodi:namedview
     pagecolor="#ffffff"
     bordercolor="#666666"
     borderopacity="1"
     objecttolerance="10"
     gridtolerance="10"
     guidetolerance="10"
     inkscape:pageopacity="0"
     inkscape:pageshadow="2"
     inkscape:window-width="2560"
     inkscape:window-height="1373"
     id="namedview1026"
     showgrid="false"
     inkscape:zoom="1.4149207"
     inkscape:cx="386.22185"
     inkscape:cy="238.69943"
     inkscape:window-x="0"
     inkscape:window-y="0"
     inkscape:window-maximized="1"
     inkscape:current-layer="svg1024" />
  <rect
     style="opacity:1;fill:#2e86ab;fill-opacity:1;stroke:none;stroke-width:4.66478968;stroke-miterlimit:4;stroke-dasharray:none;stroke-dashoffset:0;stroke-opacity:1;paint-order:stroke markers fill"
     id="rect1032"
     width="501.45639"
     height="500.95657"
     x="-0.35337675"
     y="0.10350181" />
  <path
     d="m 381.71094,204.30998 -44.23295,29.176 -23.84101,11.68854 -15.87384,4.08847 -50.94958,32.70576 -36.7902,16.34784 -20.44235,-12.2634 -24.52681,8.17493 -44.96915,28.62132 -20.442355,-8.17493 -36.790189,16.34783 -16.347837,4.08848 -47.11726611,49.0536 0,118.21141 H 502.32792 l 0,-118.21141 -51.19162,-77.66484 -12.2634,-40.88471 -24.52679,-28.62132 -4.08848,-12.26339 z m 0,28.62132 8.17493,12.2634 v 16.34783 l 28.62131,24.5268 8.17494,28.62132 40.88471,65.40143 -69.48587,-4.08847 -49.05359,8.17493 -24.5268,-24.5268 -4.08846,-24.5268 0.96593,-36.79019 35.82204,-49.05359 z m -69.13289,40.51157 -25.64624,48.88215 -7.40846,37.33478 -44.96916,24.52681 h -57.22247 l 69.48588,-73.5804 53.41032,-35.90271 z M 181.37179,306.5117 v 8.17491 l -8.17493,8.17493 v 8.17492 l -4.08847,8.17493 -4.08847,28.62132 -16.34784,16.34783 H 91.449616 l 73.580394,-69.48586 z m -85.843787,28.62132 v 12.26339 l -36.79019,36.7902 h -30.62824 l 22.449279,-28.62132 16.347836,-4.08848 z"
     id="path1022"
     inkscape:connector-curvature="0"
     style="fill:#eeeeee;fill-opacity:1;stroke-width:1.03976679"
     sodipodi:nodetypes="ccccccccccccccccccccccccccccccccccccccccccccccccccccccccccc" />
</svg>
