<svg version="1.1" viewBox="0 0 500 250" xmlns="http://www.w3.org/2000/svg">
    <path d="m379.58 5.5465-43.817 28.906-23.617 11.587-15.724 4.0493-50.468 32.394-36.443 16.197-20.246-12.148-24.296 8.0985-44.542 28.345-20.246-8.0985-36.443 16.197-16.197 4.0493-40.493 48.591v60.739h485.91v-60.739l-44.542-76.936-12.148-40.493-24.296-28.345-4.0492-12.148zm0 28.345 8.0985 12.148v16.197l28.345 24.296 8.0985 28.345 40.493 64.788-68.838-4.0493-48.591 8.0985-24.296-24.296-4.0493-24.296 0.95682-36.443 35.487-48.591zm-68.488 40.124-25.405 48.421-7.3387 36.982-44.542 24.296h-56.69l68.838-72.887 52.901-35.558zm-129.93 32.763v8.0986l-8.0986 8.0985v8.0985l-4.0492 8.0985-4.0493 28.345-16.197 16.197h-56.69l72.887-68.838zm-85.035 28.345v12.148l-36.443 36.443h-30.337l22.239-28.345 16.197-4.0493zm79.542 64.833c2.2395 0 4.2738 0.45016 6.106 1.3518 1.8614 0.90161 3.4475 2.1077 4.7563 3.6201 1.3088 1.5124 2.3258 3.2004 3.053 5.0618 0.72713 1.8614 1.0902 3.7809 1.0902 5.7586 0 2.0359-0.37796 3.9979-1.1342 5.8884-0.75619 1.8614-1.8179 3.5346-3.1848 5.0178-1.3378 1.4542-2.9367 2.6029-4.7982 3.4464-1.8323 0.84342-3.8389 1.266-6.0201 1.266-2.2685 0-4.3326-0.4374-6.1939-1.3099-1.8324-0.87253-3.4184-2.051-4.7563-3.5342-1.3088-1.5124-2.3259-3.1984-3.053-5.0597-0.72713-1.8905-1.0923-3.8248-1.0923-5.8026 0-2.065 0.37797-4.027 1.1342-5.8884 0.78516-1.8905 1.847-3.5637 3.1848-5.0179 1.367-1.4833 2.968-2.6469 4.8003-3.4903 1.8614-0.87254 3.8977-1.3078 6.108-1.3078zm61.549 0c1.4542 0 2.8215 0.15926 4.1013 0.47919 1.3087 0.31994 2.5297 0.74248 3.664 1.266 1.1343 0.52352 2.1535 1.0905 3.055 1.7012l-2.6616 4.886c-0.20351-0.20355-0.58165-0.47963-1.1342-0.82864-0.52361-0.349-1.1775-0.68448-1.9628-1.0044-0.75627-0.31989-1.5865-0.59597-2.488-0.82864-0.90159-0.26174-1.8168-0.39338-2.7474-0.39338-1.6287 0-2.8645 0.30576-3.708 0.91655-0.81432 0.61075-1.222 1.4686-1.222 2.5738 0 0.84342 0.26129 1.5124 0.78473 2.0067 0.52353 0.49442 1.3091 0.91696 2.3562 1.266 1.047 0.34901 2.3551 0.72697 3.9256 1.1342 2.0358 0.49442 3.7961 1.1059 5.2794 1.833 1.5124 0.69801 2.6612 1.6281 3.4464 2.7914 0.8144 1.1343 1.222 2.6462 1.222 4.5366 0 1.6578-0.3057 3.0826-0.9165 4.275-0.61072 1.1633-1.4537 2.1082-2.5299 2.8354-1.0761 0.72709-2.2971 1.2664-3.6639 1.6154-1.367 0.31993-2.8214 0.47919-4.363 0.47919-1.5414 0-3.083-0.15926-4.6244-0.47919-1.5414-0.31994-3.0257-0.77009-4.4508-1.3518-1.4251-0.61079-2.7331-1.3391-3.9256-2.1825l2.6617-5.1915c0.26181 0.26175 0.72678 0.61209 1.3957 1.0484 0.66892 0.40716 1.4822 0.82759 2.442 1.2639 0.95979 0.40719 2.0067 0.75754 3.1408 1.0484 1.1342 0.29086 2.2831 0.43526 3.4464 0.43526 1.6287 0 2.8666-0.27604 3.7101-0.82864 0.84337-0.5526 1.2638-1.3382 1.2638-2.3562 0-0.93068-0.33337-1.6569-1.0023-2.1804-0.66901-0.52349-1.6011-0.97575-2.7935-1.3539-1.1924-0.40707-2.6024-0.84245-4.2311-1.3078-1.9486-0.55261-3.5772-1.1641-4.8861-1.8331-1.3088-0.69801-2.2833-1.5707-2.9233-2.6177-0.63986-1.0469-0.9604-2.355-0.9604-3.9256 0-2.1231 0.49473-3.8983 1.4836-5.3234 1.018-1.4542 2.3853-2.5435 4.1013-3.2706 1.7159-0.7562 3.6206-1.1342 5.7147-1.1342zm122.45 0c2.2395 0 4.2759 0.45016 6.1081 1.3518 1.8614 0.90161 3.4454 2.1077 4.7542 3.6201 1.3087 1.5124 2.328 3.2004 3.055 5.0618 0.72722 1.8614 1.0902 3.7809 1.0902 5.7586 0 2.0359-0.37788 3.9979-1.1341 5.8884-0.75628 1.8614-1.8178 3.5346-3.1848 5.0178-1.3378 1.4542-2.9368 2.6029-4.7982 3.4464-1.8322 0.84342-3.8389 1.266-6.0202 1.266-2.2686 0-4.3345-0.4374-6.1959-1.3099-1.8322-0.87253-3.4164-2.051-4.7543-3.5342-1.3088-1.5124-2.3279-3.1984-3.055-5.0597-0.72705-1.8905-1.0902-3.8248-1.0902-5.8026 0-2.065 0.37788-4.027 1.1342-5.8884 0.78525-1.8905 1.847-3.5637 3.1848-5.0179 1.3669-1.4833 2.9659-2.6469 4.7981-3.4903 1.8614-0.87254 3.8976-1.3078 6.1081-1.3078zm-28.659 0.04394c2.8502 0 5.307 0.62427 7.3719 1.8749 2.094 1.2506 3.6504 2.8793 4.6684 4.886l-4.6245 3.1848c-0.52353-1.1634-1.2072-2.0786-2.0507-2.7475-0.84346-0.69805-1.7438-1.1779-2.7035-1.4397-0.95979-0.29082-1.9068-0.43732-2.8375-0.43732-1.5123 0-2.8351 0.30576-3.9695 0.91651-1.1051 0.61075-2.0352 1.4113-2.7914 2.4001-0.75611 0.98887-1.3231 2.093-1.7012 3.3146-0.34908 1.2215-0.52309 2.4425-0.52309 3.664 0 1.367 0.21651 2.6919 0.65286 3.9716 0.43626 1.2506 1.0477 2.3697 1.833 3.3585 0.81431 0.95976 1.7741 1.7305 2.8793 2.3122 1.1342 0.5526 2.3701 0.82864 3.708 0.82864 0.95979 0 1.9344-0.15926 2.9232-0.47919 0.98894-0.31993 1.9061-0.82953 2.7496-1.5275 0.84346-0.69802 1.4975-1.6004 1.9628-2.7056l4.93 2.8375c-0.6108 1.5414-1.6151 2.8495-3.0112 3.9256-1.3668 1.0761-2.9085 1.8894-4.6244 2.442-1.7161 0.5526-3.4169 0.83074-5.1037 0.83074-2.2104 0-4.2319-0.45226-6.0641-1.3539-1.8323-0.93068-3.4184-2.1516-4.7563-3.664-1.3088-1.5415-2.3407-3.2572-3.0969-5.1476-0.72705-1.9195-1.0902-3.8539-1.0902-5.8026 0-1.8904 0.33538-3.7378 1.0044-5.541 0.69799-1.8323 1.7004-3.4907 3.0091-4.9739 1.3088-1.5124 2.9076-2.7036 4.7982-3.5762 1.8904-0.90156 4.0436-1.3518 6.4575-1.3518zm-311.12 0.17371h20.81v5.2794h-14.79v7.983h12.302v4.886h-12.302v12.825h-6.0201zm24.208 0h6.0222v25.696h15.792v5.2774h1.9649l11.429-30.973h6.1081l11.387 30.973h-6.196l-2.8793-7.7214h-10.818l-2.8375 7.7214h-8.1588 1.9649-23.779zm49.777 0h25.784v5.2794h-9.9039v25.694h-5.9762v-25.694h-9.9039zm28.791 0h6.0202v30.973h-6.0202zm11.645 0h13.7c1.4251 0 2.733 0.2909 3.9256 0.87254 1.2214 0.58171 2.2683 1.3674 3.1408 2.3562 0.90159 0.98887 1.5854 2.093 2.0508 3.3146 0.49447 1.2215 0.74284 2.4722 0.74284 3.7519 0 1.3088-0.23353 2.5743-0.69894 3.7958-0.43626 1.1925-1.0754 2.2393-1.9188 3.1409-0.84346 0.90161-1.833 1.6002-2.9672 2.0946l7.0665 11.647h-6.6291l-6.3696-10.383h-6.0202v10.383h-6.0222zm60.156 0h4.7982l16.012 20.417v-20.373h6.0201v30.93h-5.0178l-15.792-19.892v19.892h-6.0202zm70.148 0h13.698c1.4252 0 2.7352 0.2909 3.9276 0.87254 1.2216 0.58171 2.2684 1.3674 3.1409 2.3562 0.90167 0.98887 1.5853 2.093 2.0507 3.3146 0.49438 1.2215 0.74075 2.4722 0.74075 3.7519 0 1.3088-0.23144 2.5743-0.69685 3.7958-0.43626 1.1925-1.0775 2.2393-1.9209 3.1409-0.84338 0.90161-1.8308 1.6002-2.9652 2.0946l7.0665 11.647h-6.6312l-6.3696-10.383h-6.0202v10.383h-6.0201zm28.18 0h21.116v5.2794h-15.095v7.4598h13.045v4.886h-13.045v8.0708h15.487v5.2774h-21.507zm81.355 0h6.3257l8.3743 23.819 8.2905-23.819h6.3258l-11.737 30.973h-5.8005zm31.8 0h21.114v5.2794h-15.093v7.4598h13.045v4.886h-13.045v8.0708h15.487v5.2774h-21.507zm25.386 0h13.7c1.425 0 2.733 0.2909 3.9256 0.87254 1.2214 0.58171 2.2683 1.3674 3.1408 2.3562 0.90157 0.98887 1.5853 2.093 2.0507 3.3146 0.49446 1.2215 0.74284 2.4722 0.74284 3.7519 0 1.3088-0.23356 2.5743-0.69886 3.7958-0.43635 1.1925-1.0754 2.2393-1.9189 3.1409-0.84338 0.90161-1.8329 1.6002-2.9672 2.0946l7.0665 11.647h-6.6313l-6.3674-10.383h-6.0223v10.383h-6.0202zm23.555 0h6.5454l7.6335 14.57 7.7654-14.57h6.5014l-11.256 20.155v10.818h-5.9784v-10.906zm-279.31 5.1476c-1.4832 0-2.7913 0.30576-3.9256 0.91651-1.1053 0.58167-2.0374 1.3673-2.7935 2.3562-0.75619 0.98883-1.338 2.093-1.7451 3.3146-0.37814 1.2215-0.56707 2.4722-0.56707 3.7519 0 1.3378 0.20386 2.6331 0.61097 3.8837 0.4072 1.2506 0.98894 2.3697 1.7452 3.3585 0.78525 0.95976 1.7301 1.7306 2.8353 2.3122 1.1343 0.55261 2.4148 0.82865 3.8398 0.82865 1.4542 0 2.7473-0.2909 3.8817-0.87258 1.1342-0.61075 2.0813-1.4092 2.8374-2.398 0.75628-1.018 1.3232-2.1391 1.7012-3.3606 0.4072-1.2506 0.61106-2.5013 0.61106-3.7519 0-1.3379-0.2187-2.6162-0.65496-3.8377-0.4072-1.2506-1.0039-2.3569-1.7891-3.3167-0.75619-0.98883-1.7011-1.7596-2.8354-2.3122-1.1053-0.58167-2.3558-0.87257-3.7519-0.87257zm184 0c-1.4832 0-2.7912 0.30576-3.9256 0.91651-1.1052 0.58167-2.0353 1.3673-2.7914 2.3562-0.75619 0.98883-1.3379 2.093-1.7452 3.3146-0.37806 1.2215-0.56708 2.4722-0.56708 3.7519 0 1.3378 0.20377 2.6331 0.61106 3.8837 0.40711 1.2506 0.98903 2.3697 1.7451 3.3585 0.78534 0.95976 1.7303 1.7306 2.8354 2.3122 1.1343 0.55261 2.4126 0.82865 3.8377 0.82865 1.4543 0 2.7495-0.2909 3.8837-0.87258 1.1343-0.61075 2.0792-1.4092 2.8354-2.398 0.7561-1.018 1.3231-2.1391 1.7012-3.3606 0.40712-1.2506 0.61098-2.5013 0.61098-3.7519 0-1.3379-0.21879-2.6162-0.65496-3.8377-0.40711-1.2506-1.0018-2.3569-1.787-3.3167-0.75619-0.98883-1.7031-1.7596-2.8374-2.3122-1.1052-0.58167-2.3558-0.87257-3.7519-0.87257zm-219.25 0.1318v10.034h7.5456c0.75628 0 1.4251-0.21875 2.0068-0.65497 0.58173-0.46538 1.0488-1.0769 1.3978-1.8331 0.34899-0.7562 0.52318-1.5992 0.52318-2.5299 0-0.98887-0.20386-1.8467-0.61106-2.5738-0.40711-0.7562-0.93169-1.3529-1.5715-1.7891-0.6108-0.43622-1.2796-0.65286-2.0068-0.65286zm130.3 0v10.034h7.5478c0.7562 0 1.4251-0.21875 2.0067-0.65497 0.58165-0.46538 1.0467-1.0769 1.3957-1.8331 0.34908-0.7562 0.52319-1.5992 0.52319-2.5299 0-0.98887-0.20395-1.8467-0.61106-2.5738-0.40729-0.7562-0.9296-1.3529-1.5694-1.7891-0.61072-0.43622-1.2796-0.65286-2.0068-0.65286zm166.72 0v10.034h7.5477c0.75628 0 1.4251-0.21875 2.0068-0.65497 0.58155-0.46538 1.0466-1.0769 1.3957-1.8331 0.349-0.7562 0.52518-1.5992 0.52518-2.5299 0-0.98887-0.20383-1.8467-0.61095-2.5738-0.40719-0.7562-0.93169-1.3529-1.5715-1.7891-0.61079-0.43622-1.2797-0.65286-2.0068-0.65286zm-354.99 0.95838-4.4508 12.783h8.7258z" fill="#1e1e1e"/>
</svg>
