<?xml version="1.0" encoding="UTF-8" standalone="no"?>
<!-- Created with Inkscape (http://www.inkscape.org/) -->

<svg
   xmlns:dc="http://purl.org/dc/elements/1.1/"
   xmlns:cc="http://creativecommons.org/ns#"
   xmlns:rdf="http://www.w3.org/1999/02/22-rdf-syntax-ns#"
   xmlns:svg="http://www.w3.org/2000/svg"
   xmlns="http://www.w3.org/2000/svg"
   xmlns:sodipodi="http://sodipodi.sourceforge.net/DTD/sodipodi-0.dtd"
   xmlns:inkscape="http://www.inkscape.org/namespaces/inkscape"
   width="1250"
   height="900"
   viewBox="0 0 330.72916 238.12501"
   version="1.1"
   id="svg8"
   inkscape:version="0.92.3 (2405546, 2018-03-11)"
   sodipodi:docname="logo.svg">
  <defs
     id="defs2" />
  <sodipodi:namedview
     id="base"
     pagecolor="#ffffff"
     bordercolor="#666666"
     borderopacity="1.0"
     inkscape:pageopacity="0.0"
     inkscape:pageshadow="2"
     inkscape:zoom="1.1767578"
     inkscape:cx="750.11254"
     inkscape:cy="389.42292"
     inkscape:document-units="mm"
     inkscape:current-layer="g887"
     showgrid="false"
     units="px"
     inkscape:pagecheckerboard="true"
     inkscape:window-width="2560"
     inkscape:window-height="1373"
     inkscape:window-x="0"
     inkscape:window-y="0"
     inkscape:window-maximized="1"
     showguides="true"
     inkscape:guide-bbox="true" />
  <metadata
     id="metadata5">
    <rdf:RDF>
      <cc:Work
         rdf:about="">
        <dc:format>image/svg+xml</dc:format>
        <dc:type
           rdf:resource="http://purl.org/dc/dcmitype/StillImage" />
        <dc:title></dc:title>
      </cc:Work>
    </rdf:RDF>
  </metadata>
  <g
     inkscape:label="Layer 1"
     inkscape:groupmode="layer"
     id="layer1"
     transform="translate(0,-58.874983)">
    <path
       style="opacity:1;fill:none;fill-opacity:1;stroke:#000000;stroke-width:3.4336803;stroke-miterlimit:4;stroke-dasharray:none;stroke-dashoffset:50;stroke-opacity:1;paint-order:stroke markers fill"
       d=""
       id="path2124"
       inkscape:connector-curvature="0"
       transform="matrix(0.26458333,0,0,0.26458333,0,58.874983)" />
    <g
       id="g887"
       transform="translate(-340.23122,-40.700557)"
       style="fill:#2e86ab;fill-opacity:1;stroke:none">
      <rect
         style="opacity:1;fill:#2e86ab;fill-opacity:1;stroke:none;stroke-width:0.71468145;stroke-miterlimit:4;stroke-dasharray:none;stroke-dashoffset:50;stroke-opacity:1;paint-order:stroke markers fill"
         id="rect921"
         width="167.95618"
         height="53.566525"
         x="340.00638"
         y="232.05177" />
      <path
         sodipodi:nodetypes="ccccccccccc"
         inkscape:connector-curvature="0"
         id="path851-3"
         d="m 355.62544,271.91441 6.48634,-6.16199 2.37831,0.32431 2.59453,-1.83779 2.16211,-0.43242 3.5287,-3.00634 -0.42668,2.03464 -8.39919,8.75529 -2.37831,1.30475 h -4.8713 z"
         style="fill:#eeeeee;fill-opacity:1;stroke:none;stroke-width:0.50885552px;stroke-linecap:butt;stroke-linejoin:miter;stroke-opacity:1" />
      <path
         sodipodi:nodetypes="cccccccccc"
         inkscape:connector-curvature="0"
         id="path853-5"
         d="m 370.54398,272.89486 21.94541,-19.25026 3.89596,-2.09571 -0.41348,1.209 -1.26052,1.60672 0.15636,2.09073 -2.81074,3.35128 0.43242,7.78358 -5.29716,5.30466 z"
         style="fill:#eeeeee;fill-opacity:1;stroke:none;stroke-width:0.50885552px;stroke-linecap:butt;stroke-linejoin:miter;stroke-opacity:1" />
      <path
         sodipodi:nodetypes="cccccccccc"
         inkscape:connector-curvature="0"
         id="path855-6"
         d="m 395.56119,272.89486 20.32497,-20.97245 9.34556,-4.06458 5.01853,-3.10215 3.52463,-0.3606 -7.18347,11.05246 -2.8147,10.7448 -6.91874,2.48641 -5.7099,4.21611 z"
         style="fill:#eeeeee;fill-opacity:1;stroke:none;stroke-width:0.50885552px;stroke-linecap:butt;stroke-linejoin:miter;stroke-opacity:1" />
      <path
         sodipodi:nodetypes="ccccccccccccccc"
         inkscape:connector-curvature="0"
         id="path857-2"
         d="m 435.53612,254.48314 9.50707,-14.06254 7.69774,-3.97262 2.11668,3.26242 -0.1231,4.73343 8.00602,7.13326 2.92391,8.32129 22.70057,15.29274 0.98417,2.25084 -12.81469,0.24742 -19.81938,-1.73445 -12.687,4.77408 -7.34714,-9.10917 -1.48646,-5.79501 z"
         style="fill:#eeeeee;fill-opacity:1;stroke:none;stroke-width:0.50885552px;stroke-linecap:butt;stroke-linejoin:miter;stroke-opacity:1" />
      <text
         id="text861-9"
         y="281.24338"
         x="355.2099"
         style="font-style:normal;font-variant:normal;font-weight:normal;font-stretch:normal;font-size:11.43913746px;line-height:1.25;font-family:Montserrat;-inkscape-font-specification:Montserrat;letter-spacing:0px;word-spacing:0px;fill:#212121;fill-opacity:1;stroke:none;stroke-width:0.28597847"
         xml:space="preserve"><tspan
           dx="0"
           style="font-style:normal;font-variant:normal;font-weight:800;font-stretch:normal;font-size:6.86348295px;font-family:Montserrat;-inkscape-font-specification:'Montserrat Ultra-Bold';letter-spacing:-0.12069487px;word-spacing:0px;fill:#ffffff;fill-opacity:1;stroke:none;stroke-width:0.28597847"
           y="281.24338"
           x="355.2099"
           id="tspan859-1"
           sodipodi:role="line">FLATIRONS RECOVERY</tspan></text>
      <path
         sodipodi:nodetypes="ccccccccccc"
         inkscape:connector-curvature="0"
         id="path851-3-2"
         d="m 355.41181,324.102 6.48633,-6.16199 2.37831,0.32431 2.59454,-1.83779 2.1621,-0.43242 3.5287,-3.00634 -0.42667,2.03464 -8.3992,8.75529 -2.37831,1.30475 h -4.87129 z"
         style="fill:#2e86ab;fill-opacity:1;stroke:none;stroke-width:0.50885552px;stroke-linecap:butt;stroke-linejoin:miter;stroke-opacity:1" />
      <path
         sodipodi:nodetypes="cccccccccc"
         inkscape:connector-curvature="0"
         id="path853-5-6"
         d="m 370.33035,325.08245 21.9454,-19.25026 3.89596,-2.09571 -0.41347,1.209 -1.26053,1.60672 0.15637,2.09073 -2.81075,3.35128 0.43242,7.78358 -5.29716,5.30466 z"
         style="fill:#2e86ab;fill-opacity:1;stroke:none;stroke-width:0.50885552px;stroke-linecap:butt;stroke-linejoin:miter;stroke-opacity:1" />
      <path
         sodipodi:nodetypes="cccccccccc"
         inkscape:connector-curvature="0"
         id="path855-6-1"
         d="m 395.34755,325.08245 20.32497,-20.97245 9.34557,-4.06458 5.01852,-3.10215 3.52464,-0.3606 -7.18347,11.05246 -2.81471,10.7448 -6.91874,2.48641 -5.7099,4.21611 z"
         style="fill:#2e86ab;fill-opacity:1;stroke:none;stroke-width:0.50885552px;stroke-linecap:butt;stroke-linejoin:miter;stroke-opacity:1" />
      <path
         sodipodi:nodetypes="ccccccccccccccc"
         inkscape:connector-curvature="0"
         id="path857-2-8"
         d="m 435.32249,306.67073 9.50707,-14.06254 7.69773,-3.97262 2.11669,3.26242 -0.12311,4.73343 8.00602,7.13326 2.92391,8.32129 22.70058,15.29274 0.98417,2.25084 -12.81469,0.24742 -19.81939,-1.73445 -12.68699,4.77408 -7.34715,-9.10917 -1.48646,-5.79501 z"
         style="fill:#2e86ab;fill-opacity:1;stroke:none;stroke-width:0.50885552px;stroke-linecap:butt;stroke-linejoin:miter;stroke-opacity:1" />
      <text
         id="text861-9-7"
         y="333.43097"
         x="354.99628"
         style="font-style:normal;font-variant:normal;font-weight:normal;font-stretch:normal;font-size:11.43913746px;line-height:1.25;font-family:Montserrat;-inkscape-font-specification:Montserrat;letter-spacing:0px;word-spacing:0px;fill:#2e86ab;fill-opacity:1;stroke:none;stroke-width:0.28597847"
         xml:space="preserve"><tspan
           dx="0"
           style="font-style:normal;font-variant:normal;font-weight:800;font-stretch:normal;font-size:6.86348295px;font-family:Montserrat;-inkscape-font-specification:'Montserrat Ultra-Bold';letter-spacing:-0.12069487px;word-spacing:0px;fill:#2e86ab;fill-opacity:1;stroke:none;stroke-width:0.28597847"
           y="333.43097"
           x="354.99628"
           id="tspan859-1-9"
           sodipodi:role="line">FLATIRONS RECOVERY</tspan></text>
      <g
         id="g1108"
         transform="translate(0,-2.15725)">
        <path
           style="fill:#212121;fill-opacity:1;stroke:none;stroke-width:0.50885552px;stroke-linecap:butt;stroke-linejoin:miter;stroke-opacity:1"
           d="m 358.08034,218.94109 6.48633,-6.162 2.37831,0.32431 2.59454,-1.83779 2.1621,-0.43242 3.5287,-3.00633 -0.42668,2.03464 -8.39919,8.75528 -2.37831,1.30476 h -4.87129 z"
           id="path851-3-2-2"
           inkscape:connector-curvature="0"
           sodipodi:nodetypes="ccccccccccc" />
        <path
           style="fill:#212121;fill-opacity:1;stroke:none;stroke-width:0.50885552px;stroke-linecap:butt;stroke-linejoin:miter;stroke-opacity:1"
           d="m 372.99888,219.92154 21.9454,-19.25026 3.89596,-2.09571 -0.41347,1.209 -1.26053,1.60671 0.15637,2.09074 -2.81075,3.35127 0.43242,7.78358 -5.29716,5.30467 z"
           id="path853-5-6-0"
           inkscape:connector-curvature="0"
           sodipodi:nodetypes="cccccccccc" />
        <path
           style="fill:#212121;fill-opacity:1;stroke:none;stroke-width:0.50885552px;stroke-linecap:butt;stroke-linejoin:miter;stroke-opacity:1"
           d="m 398.01608,219.92154 20.32497,-20.97245 9.34556,-4.06459 5.01853,-3.10215 3.52464,-0.36059 -7.18348,11.05246 -2.8147,10.74479 -6.91874,2.48641 -5.7099,4.21612 z"
           id="path855-6-1-2"
           inkscape:connector-curvature="0"
           sodipodi:nodetypes="cccccccccc" />
        <path
           style="fill:#212121;fill-opacity:1;stroke:none;stroke-width:0.50885552px;stroke-linecap:butt;stroke-linejoin:miter;stroke-opacity:1"
           d="m 437.99102,201.50982 9.50707,-14.06254 7.69773,-3.97262 2.11669,3.26242 -0.12311,4.73342 8.00602,7.13327 2.92391,8.32128 22.70057,15.29275 0.98417,2.25084 -12.81468,0.24742 -19.81939,-1.73446 -12.68699,4.77409 -7.34715,-9.10918 -1.48646,-5.795 z"
           id="path857-2-8-3"
           inkscape:connector-curvature="0"
           sodipodi:nodetypes="ccccccccccccccc" />
        <text
           xml:space="preserve"
           style="font-style:normal;font-variant:normal;font-weight:normal;font-stretch:normal;font-size:11.43913746px;line-height:1.25;font-family:Montserrat;-inkscape-font-specification:Montserrat;letter-spacing:0px;word-spacing:0px;fill:#212121;fill-opacity:1;stroke:none;stroke-width:0.28597847"
           x="357.66479"
           y="228.27007"
           id="text861-9-7-7"><tspan
             sodipodi:role="line"
             id="tspan859-1-9-5"
             x="357.66479"
             y="228.27007"
             style="font-style:normal;font-variant:normal;font-weight:800;font-stretch:normal;font-size:6.86348295px;font-family:Montserrat;-inkscape-font-specification:'Montserrat Ultra-Bold';letter-spacing:-0.12069487px;word-spacing:0px;fill:#212121;fill-opacity:1;stroke:none;stroke-width:0.28597847"
             dx="0">FLATIRONS RECOVERY</tspan></text>
      </g>
      <rect
         style="opacity:1;fill:#588157;fill-opacity:1;stroke:none;stroke-width:0.70601833;stroke-miterlimit:4;stroke-dasharray:none;stroke-dashoffset:50;stroke-opacity:1;paint-order:stroke markers fill"
         id="rect921-9"
         width="163.90903"
         height="53.566525"
         x="508.05334"
         y="232.05176" />
      <path
         sodipodi:nodetypes="ccccccccccc"
         inkscape:connector-curvature="0"
         id="path851-3-22"
         d="m 524.20163,271.91439 6.48634,-6.16199 2.37831,0.32431 2.59453,-1.83779 2.16211,-0.43242 3.5287,-3.00634 -0.42668,2.03464 -8.39919,8.75529 -2.37831,1.30475 h -4.8713 z"
         style="fill:#eeeeee;fill-opacity:1;stroke:none;stroke-width:0.50885552px;stroke-linecap:butt;stroke-linejoin:miter;stroke-opacity:1" />
      <path
         sodipodi:nodetypes="cccccccccc"
         inkscape:connector-curvature="0"
         id="path853-5-8"
         d="m 539.12017,272.89484 21.94541,-19.25026 3.89596,-2.09571 -0.41348,1.209 -1.26052,1.60672 0.15636,2.09073 -2.81074,3.35128 0.43242,7.78358 -5.29716,5.30466 z"
         style="fill:#eeeeee;fill-opacity:1;stroke:none;stroke-width:0.50885552px;stroke-linecap:butt;stroke-linejoin:miter;stroke-opacity:1" />
      <path
         sodipodi:nodetypes="cccccccccc"
         inkscape:connector-curvature="0"
         id="path855-6-9"
         d="m 564.13738,272.89484 20.32497,-20.97245 9.34556,-4.06458 5.01853,-3.10215 3.52463,-0.3606 -7.18347,11.05246 -2.8147,10.7448 -6.91874,2.48641 -5.7099,4.21611 z"
         style="fill:#eeeeee;fill-opacity:1;stroke:none;stroke-width:0.50885552px;stroke-linecap:butt;stroke-linejoin:miter;stroke-opacity:1" />
      <path
         sodipodi:nodetypes="ccccccccccccccc"
         inkscape:connector-curvature="0"
         id="path857-2-7"
         d="m 604.11231,254.48312 9.50707,-14.06254 7.69774,-3.97262 2.11668,3.26242 -0.1231,4.73343 8.00602,7.13326 2.92391,8.32129 22.70057,15.29274 0.98417,2.25084 -12.81469,0.24742 -19.81938,-1.73445 -12.687,4.77408 -7.34714,-9.10917 -1.48646,-5.79501 z"
         style="fill:#eeeeee;fill-opacity:1;stroke:none;stroke-width:0.50885552px;stroke-linecap:butt;stroke-linejoin:miter;stroke-opacity:1" />
      <text
         id="text861-9-3"
         y="281.24335"
         x="523.78601"
         style="font-style:normal;font-variant:normal;font-weight:normal;font-stretch:normal;font-size:11.43913746px;line-height:1.25;font-family:Montserrat;-inkscape-font-specification:Montserrat;letter-spacing:0px;word-spacing:0px;fill:#212121;fill-opacity:1;stroke:none;stroke-width:0.28597847"
         xml:space="preserve"><tspan
           dx="0"
           style="font-style:normal;font-variant:normal;font-weight:800;font-stretch:normal;font-size:6.86348295px;font-family:Montserrat;-inkscape-font-specification:'Montserrat Ultra-Bold';letter-spacing:-0.12069487px;word-spacing:0px;fill:#ffffff;fill-opacity:1;stroke:none;stroke-width:0.28597847"
           y="281.24335"
           x="523.78601"
           id="tspan859-1-6"
           sodipodi:role="line">FLATIRONS RECOVERY</tspan></text>
      <g
         id="g1100"
         style="fill:#588157;fill-opacity:1">
        <path
           style="fill:#588157;fill-opacity:1;stroke:none;stroke-width:0.50885552px;stroke-linecap:butt;stroke-linejoin:miter;stroke-opacity:1"
           d="m 525.64089,323.06579 6.48633,-6.16199 2.37831,0.32431 2.59454,-1.83779 2.1621,-0.43242 3.5287,-3.00634 -0.42667,2.03464 -8.3992,8.75529 -2.37831,1.30475 h -4.87129 z"
           id="path851-3-2-1"
           inkscape:connector-curvature="0"
           sodipodi:nodetypes="ccccccccccc" />
        <path
           style="fill:#588157;fill-opacity:1;stroke:none;stroke-width:0.50885552px;stroke-linecap:butt;stroke-linejoin:miter;stroke-opacity:1"
           d="m 540.55943,324.04624 21.9454,-19.25026 3.89596,-2.09571 -0.41347,1.209 -1.26053,1.60672 0.15637,2.09073 -2.81075,3.35128 0.43242,7.78358 -5.29716,5.30466 z"
           id="path853-5-6-2"
           inkscape:connector-curvature="0"
           sodipodi:nodetypes="cccccccccc" />
        <path
           style="fill:#588157;fill-opacity:1;stroke:none;stroke-width:0.50885552px;stroke-linecap:butt;stroke-linejoin:miter;stroke-opacity:1"
           d="m 565.57663,324.04624 20.32497,-20.97245 9.34557,-4.06458 5.01852,-3.10215 3.52464,-0.3606 -7.18347,11.05246 -2.81471,10.7448 -6.91874,2.48641 -5.7099,4.21611 z"
           id="path855-6-1-9"
           inkscape:connector-curvature="0"
           sodipodi:nodetypes="cccccccccc" />
        <path
           style="fill:#588157;fill-opacity:1;stroke:none;stroke-width:0.50885552px;stroke-linecap:butt;stroke-linejoin:miter;stroke-opacity:1"
           d="m 605.55157,305.63452 9.50707,-14.06254 7.69773,-3.97262 2.11669,3.26242 -0.12311,4.73343 8.00602,7.13326 2.92391,8.32129 22.70058,15.29274 0.98417,2.25084 -12.81469,0.24742 -19.81939,-1.73445 -12.68699,4.77408 -7.34715,-9.10917 -1.48646,-5.79501 z"
           id="path857-2-8-31"
           inkscape:connector-curvature="0"
           sodipodi:nodetypes="ccccccccccccccc" />
        <text
           xml:space="preserve"
           style="font-style:normal;font-variant:normal;font-weight:normal;font-stretch:normal;font-size:11.43913746px;line-height:1.25;font-family:Montserrat;-inkscape-font-specification:Montserrat;letter-spacing:0px;word-spacing:0px;fill:#588157;fill-opacity:1;stroke:none;stroke-width:0.28597847"
           x="525.22534"
           y="332.39474"
           id="text861-9-7-9"><tspan
             sodipodi:role="line"
             id="tspan859-1-9-4"
             x="525.22534"
             y="332.39474"
             style="font-style:normal;font-variant:normal;font-weight:800;font-stretch:normal;font-size:6.86348295px;font-family:Montserrat;-inkscape-font-specification:'Montserrat Ultra-Bold';letter-spacing:-0.12069487px;word-spacing:0px;fill:#588157;fill-opacity:1;stroke:none;stroke-width:0.28597847"
             dx="0">FLATIRONS RECOVERY</tspan></text>
      </g>
      <g
         id="g1132"
         transform="translate(0,2.1572647)">
        <path
           style="fill:#eeeeee;fill-opacity:1;stroke:none;stroke-width:0.50885552px;stroke-linecap:butt;stroke-linejoin:miter;stroke-opacity:1"
           d="m 518.89565,214.62659 6.48633,-6.16199 2.37831,0.32431 2.59454,-1.83779 2.1621,-0.43242 3.5287,-3.00634 -0.42667,2.03464 -8.3992,8.75529 -2.37831,1.30475 h -4.87129 z"
           id="path851-3-2-7"
           inkscape:connector-curvature="0"
           sodipodi:nodetypes="ccccccccccc" />
        <path
           style="fill:#eeeeee;fill-opacity:1;stroke:none;stroke-width:0.50885552px;stroke-linecap:butt;stroke-linejoin:miter;stroke-opacity:1"
           d="m 533.81419,215.60704 21.9454,-19.25026 3.89596,-2.09571 -0.41347,1.209 -1.26053,1.60672 0.15637,2.09073 -2.81075,3.35128 0.43242,7.78358 -5.29716,5.30466 z"
           id="path853-5-6-8"
           inkscape:connector-curvature="0"
           sodipodi:nodetypes="cccccccccc" />
        <path
           style="fill:#eeeeee;fill-opacity:1;stroke:none;stroke-width:0.50885552px;stroke-linecap:butt;stroke-linejoin:miter;stroke-opacity:1"
           d="m 558.83139,215.60704 20.32497,-20.97245 9.34557,-4.06458 5.01852,-3.10215 3.52464,-0.3606 -7.18347,11.05246 -2.81471,10.7448 -6.91874,2.48641 -5.7099,4.21611 z"
           id="path855-6-1-4"
           inkscape:connector-curvature="0"
           sodipodi:nodetypes="cccccccccc" />
        <path
           style="fill:#eeeeee;fill-opacity:1;stroke:none;stroke-width:0.50885552px;stroke-linecap:butt;stroke-linejoin:miter;stroke-opacity:1"
           d="m 598.80633,197.19532 9.50707,-14.06254 7.69773,-3.97262 2.11669,3.26242 -0.12311,4.73343 8.00602,7.13326 2.92391,8.32129 22.70058,15.29274 0.98417,2.25084 -12.81469,0.24742 -19.81939,-1.73445 -12.68699,4.77408 -7.34715,-9.10917 -1.48646,-5.79501 z"
           id="path857-2-8-5"
           inkscape:connector-curvature="0"
           sodipodi:nodetypes="ccccccccccccccc" />
        <text
           xml:space="preserve"
           style="font-style:normal;font-variant:normal;font-weight:normal;font-stretch:normal;font-size:11.43913746px;line-height:1.25;font-family:Montserrat;-inkscape-font-specification:Montserrat;letter-spacing:0px;word-spacing:0px;fill:#eeeeee;fill-opacity:1;stroke:none;stroke-width:0.28597847"
           x="518.4801"
           y="223.95554"
           id="text861-9-7-0"><tspan
             sodipodi:role="line"
             id="tspan859-1-9-3"
             x="518.4801"
             y="223.95554"
             style="font-style:normal;font-variant:normal;font-weight:800;font-stretch:normal;font-size:6.86348295px;font-family:Montserrat;-inkscape-font-specification:'Montserrat Ultra-Bold';letter-spacing:-0.12069487px;word-spacing:0px;fill:#eeeeee;fill-opacity:1;stroke:none;stroke-width:0.28597847"
             dx="0">FLATIRONS RECOVERY</tspan></text>
      </g>
    </g>
  </g>
</svg>
