<svg xmlns="http://www.w3.org/2000/svg" aria-hidden="true" class="svg-inline--fa fa-youtube fa-w-18" data-icon="youtube" data-prefix="fab" viewBox="0 0 50 50">
  <defs/>
  <path fill="red" d="M41.29 16.79a4.27 4.27 0 00-3.01-3.03c-2.65-.71-13.28-.71-13.28-.71s-10.63 0-13.28.71a4.27 4.27 0 00-3 3.03C8 19.46 8 25.02 8 25.02s0 5.57.71 8.24a4.2 4.2 0 003.01 2.98c2.65.71 13.28.71 13.28.71s10.63 0 13.28-.71a4.2 4.2 0 003-2.98c.72-2.67.72-8.24.72-8.24s0-5.56-.71-8.23zM21.52 30.08V19.97l8.89 5.05z"/>
  <path fill="red" fill-rule="evenodd" d="M25 50a25 25 0 100-50 25 25 0 000 50zm0-3a22 22 0 100-44 22 22 0 000 44z"/>
</svg>
