<?xml version="1.0" encoding="UTF-8" standalone="no"?>
<!-- Created with Inkscape (http://www.inkscape.org/) -->

<svg
   xmlns:dc="http://purl.org/dc/elements/1.1/"
   xmlns:cc="http://creativecommons.org/ns#"
   xmlns:rdf="http://www.w3.org/1999/02/22-rdf-syntax-ns#"
   xmlns:svg="http://www.w3.org/2000/svg"
   xmlns="http://www.w3.org/2000/svg"
   xmlns:sodipodi="http://sodipodi.sourceforge.net/DTD/sodipodi-0.dtd"
   xmlns:inkscape="http://www.inkscape.org/namespaces/inkscape"
   width="2440"
   height="900"
   viewBox="0 0 645.58332 238.12501"
   version="1.1"
   id="svg8"
   inkscape:version="0.92.5 (2060ec1f9f, 2020-04-08)"
   sodipodi:docname="covid.svg">
  <defs
     id="defs2" />
  <sodipodi:namedview
     id="base"
     pagecolor="#ffffff"
     bordercolor="#666666"
     borderopacity="1.0"
     inkscape:pageopacity="0.0"
     inkscape:pageshadow="2"
     inkscape:zoom="0.57086443"
     inkscape:cx="1168.2498"
     inkscape:cy="413.68862"
     inkscape:document-units="mm"
     inkscape:current-layer="layer1"
     showgrid="false"
     units="px"
     inkscape:window-width="2560"
     inkscape:window-height="1373"
     inkscape:window-x="0"
     inkscape:window-y="0"
     inkscape:window-maximized="1" />
  <metadata
     id="metadata5">
    <rdf:RDF>
      <cc:Work
         rdf:about="">
        <dc:format>image/svg+xml</dc:format>
        <dc:type
           rdf:resource="http://purl.org/dc/dcmitype/StillImage" />
        <dc:title></dc:title>
      </cc:Work>
    </rdf:RDF>
  </metadata>
  <g
     inkscape:label="Layer 1"
     inkscape:groupmode="layer"
     id="layer1"
     transform="translate(0,-58.874983)">
    <rect
       style="opacity:1;fill:#d38b5d;fill-opacity:1;stroke:none;stroke-width:1.32291663;stroke-miterlimit:4;stroke-dasharray:none;stroke-dashoffset:0;stroke-opacity:1;paint-order:stroke markers fill"
       id="rect815"
       width="651.65063"
       height="244.7166"
       x="-1.8539135"
       y="58.308605" />
    <text
       xml:space="preserve"
       style="font-style:normal;font-variant:normal;font-weight:normal;font-stretch:normal;font-size:52.04508972px;line-height:1.25;font-family:Montserrat;-inkscape-font-specification:Montserrat;letter-spacing:0px;word-spacing:0px;fill:#ffffff;fill-opacity:1;stroke:none;stroke-width:1.3011272;"
       x="201.11057"
       y="181.80858"
       id="text859"><tspan
         sodipodi:role="line"
         id="tspan857"
         x="201.11057"
         y="181.80858"
         style="stroke-width:1.3011272;-inkscape-font-specification:'Montserrat Bold';font-family:Montserrat;font-weight:bold;font-style:normal;font-stretch:normal;font-variant:normal;fill:#ffffff;fill-opacity:1;">COVID-19</tspan></text>
    <g
       style="fill:#000000"
       id="g925"
       transform="matrix(3.5803995,0,0,3.5803995,279.82687,177.56125)">
      <rect
         id="rect911"
         width="24"
         height="24"
         x="0"
         y="0"
         style="fill:none" />
      <path
         id="path913"
         d="M 19.5,6 C 18.19,6 17.13,7.01 17.02,8.3 15.14,7.8 14.18,6.5 12,6.5 9.81,6.5 8.86,7.8 6.98,8.3 6.87,7.02 5.81,6 4.5,6 3.12,6 2,7.12 2,8.5 V 9 c 0,6 3.6,7.81 6.52,7.98 1.01,0.64 2.2,1.02 3.48,1.02 1.28,0 2.47,-0.38 3.48,-1.02 C 18.4,16.81 22,15 22,9 V 8.5 C 22,7.12 20.88,6 19.5,6 Z M 3.5,9 V 8.5 c 0,-0.55 0.45,-1 1,-1 0.55,0 1,0.45 1,1 v 3 c 0,1.28 0.38,2.47 1.01,3.48 C 4.99,14.27 3.5,12.65 3.5,9 Z m 10.8,2.01 C 13.9,10.84 13.58,10.65 13.29,10.48 12.83,10.2 12.49,10 12,10 c -0.49,0 -0.84,0.2 -1.31,0.48 -0.28,0.17 -0.6,0.35 -0.98,0.51 C 9.37,11.14 9,10.91 9,10.54 v 0 C 9,10.34 9.11,10.16 9.29,10.09 9.63,9.95 9.91,9.78 10.17,9.63 10.72,9.3 11.23,9 12,9 c 0.77,0 1.27,0.3 1.8,0.62 0.27,0.16 0.55,0.33 0.9,0.48 0.18,0.08 0.29,0.26 0.29,0.45 0.01,0.36 -0.36,0.6 -0.69,0.46 z M 20.5,9 c 0,3.65 -1.49,5.27 -3.01,5.98 0.64,-1.01 1.01,-2.2 1.01,-3.48 v -3 c 0,-0.55 0.45,-1 1,-1 0.55,0 1,0.45 1,1 V 9 Z"
         inkscape:connector-curvature="0"
         style="fill:#ffffff;fill-opacity:1" />
    </g>
  </g>
</svg>
