<?xml version="1.0" encoding="UTF-8" standalone="no"?>
<svg
   xmlns:dc="http://purl.org/dc/elements/1.1/"
   xmlns:cc="http://creativecommons.org/ns#"
   xmlns:rdf="http://www.w3.org/1999/02/22-rdf-syntax-ns#"
   xmlns:svg="http://www.w3.org/2000/svg"
   xmlns="http://www.w3.org/2000/svg"
   xmlns:sodipodi="http://sodipodi.sourceforge.net/DTD/sodipodi-0.dtd"
   xmlns:inkscape="http://www.inkscape.org/namespaces/inkscape"
   version="1.1"
   viewBox="0 0 500 200"
   id="svg875"
   sodipodi:docname="logo-icon.svg"
   width="500"
   height="200"
   inkscape:version="0.92.3 (2405546, 2018-03-11)">
  <metadata
     id="metadata881">
    <rdf:RDF>
      <cc:Work
         rdf:about="">
        <dc:format>image/svg+xml</dc:format>
        <dc:type
           rdf:resource="http://purl.org/dc/dcmitype/StillImage" />
        <dc:title></dc:title>
      </cc:Work>
    </rdf:RDF>
  </metadata>
  <defs
     id="defs879" />
  <sodipodi:namedview
     pagecolor="#ffffff"
     bordercolor="#666666"
     borderopacity="1"
     objecttolerance="10"
     gridtolerance="10"
     guidetolerance="10"
     inkscape:pageopacity="0"
     inkscape:pageshadow="2"
     inkscape:window-width="2560"
     inkscape:window-height="1373"
     id="namedview877"
     showgrid="false"
     inkscape:zoom="1.999"
     inkscape:cx="230.1104"
     inkscape:cy="124.87203"
     inkscape:window-x="0"
     inkscape:window-y="0"
     inkscape:window-maximized="1"
     inkscape:current-layer="svg875" />
  <path
     d="m 396.8,32.05 -26.91,17.94 -39.3,53.81 -1.059,40.35 4.482,26.91 26.91,26.9 53.81,-8.967 76.23,4.485 -44.84,-71.74 -8.967,-31.39 -31.39,-26.9 v -17.94 z m -75.84,44.43 -13.55,1.388 -58.58,39.38 -76.23,80.71 h 62.77 l 49.32,-26.9 8.126,-40.95 z m -143.9,36.28 -17.94,8.969 -80.71,76.23 h 62.77 l 17.94,-17.94 4.485,-31.39 4.485,-8.967 v -8.969 l 8.967,-8.967 z m -94.16,31.39 -31.39,17.94 -17.94,4.485 -24.62,31.39 h 33.59 l 40.36,-40.35 z"
     id="path873"
     inkscape:connector-curvature="0"
     style="fill:#1e1e1e" />
</svg>
