<svg version="1.1" viewBox="0 0 500 250" xmlns="http://www.w3.org/2000/svg">
    <path d="m375.7 9.076-42.52 28.05-22.92 11.24-15.26 3.93-48.98 31.44-35.37 15.72-19.65-11.79-23.58 7.859-43.23 27.51-19.65-7.859-35.37 15.72-15.72 3.93-45.29 47.16v58.94h483.5v-58.94l-49.21-74.66-11.79-39.3-23.58-27.51-3.93-11.79zm0 27.51 7.859 11.79v15.72l27.51 23.58 7.859 27.51 39.3 62.87-66.8-3.93-47.16 7.859-23.58-23.58-3.93-23.58 0.9286-35.37 34.44-47.16zm-66.46 38.94-24.65 46.99-7.122 35.89-43.23 23.58h-55.01l66.8-70.73 51.34-34.51zm-126.1 31.79v7.859l-7.859 7.859v7.859l-3.93 7.859-3.93 27.51-15.72 15.72h-55.01l70.73-66.8zm-82.52 27.51v11.79l-35.37 35.37h-29.44l21.58-27.51 15.72-3.93zm77.19 62.92c2.173 0 4.147 0.4368 5.926 1.312 1.806 0.875 3.346 2.045 4.616 3.513 1.27 1.468 2.257 3.106 2.963 4.912 0.7056 1.806 1.058 3.669 1.058 5.588 0 1.976-0.3668 3.88-1.101 5.714-0.7338 1.806-1.764 3.43-3.091 4.87-1.298 1.411-2.85 2.526-4.656 3.345-1.778 0.8185-3.725 1.229-5.842 1.229-2.201 0-4.205-0.4245-6.011-1.271-1.778-0.8468-3.317-1.99-4.616-3.43-1.27-1.468-2.257-3.104-2.963-4.91-0.7056-1.835-1.06-3.712-1.06-5.631 0-2.004 0.3668-3.908 1.101-5.714 0.762-1.835 1.792-3.458 3.091-4.87 1.327-1.439 2.88-2.569 4.658-3.387 1.806-0.8468 3.783-1.269 5.928-1.269zm59.73 0c1.411 0 2.738 0.1546 3.98 0.465 1.27 0.3105 2.455 0.7205 3.556 1.229 1.101 0.5081 2.09 1.058 2.965 1.651l-2.583 4.742c-0.1975-0.1975-0.5645-0.4655-1.101-0.8042-0.5081-0.3387-1.143-0.6643-1.905-0.9747-0.7339-0.3104-1.54-0.5784-2.415-0.8042-0.8749-0.254-1.763-0.3818-2.666-0.3818-1.581 0-2.78 0.2967-3.598 0.8895-0.7902 0.5927-1.186 1.425-1.186 2.498 0 0.8185 0.2536 1.468 0.7616 1.947 0.5081 0.4798 1.27 0.8899 2.287 1.229 1.016 0.3387 2.285 0.7055 3.81 1.101 1.976 0.4798 3.684 1.073 5.123 1.779 1.468 0.6774 2.583 1.58 3.345 2.709 0.7903 1.101 1.186 2.568 1.186 4.403 0 1.609-0.2967 2.992-0.8894 4.149-0.5927 1.129-1.411 2.046-2.455 2.752-1.044 0.7056-2.229 1.229-3.556 1.568-1.327 0.3105-2.738 0.465-4.234 0.465-1.496 0-2.992-0.1546-4.488-0.465-1.496-0.3105-2.936-0.7473-4.319-1.312-1.383-0.5927-2.652-1.3-3.81-2.118l2.583-5.038c0.2541 0.254 0.7053 0.594 1.354 1.017 0.6492 0.3951 1.438 0.8031 2.37 1.227 0.9314 0.3952 1.947 0.7352 3.048 1.017 1.101 0.2823 2.216 0.4224 3.345 0.4224 1.581 0 2.782-0.2679 3.6-0.8042 0.8185-0.5363 1.226-1.299 1.226-2.287 0-0.9032-0.3235-1.608-0.9727-2.116-0.6492-0.508-1.554-0.9469-2.711-1.314-1.157-0.395-2.525-0.8176-4.106-1.269-1.891-0.5363-3.471-1.13-4.742-1.779-1.27-0.6774-2.216-1.524-2.837-2.54-0.621-1.016-0.932-2.285-0.932-3.81 0-2.06 0.4801-3.783 1.44-5.166 0.9879-1.411 2.315-2.468 3.98-3.174 1.665-0.7338 3.514-1.101 5.546-1.101zm118.8 0c2.173 0 4.15 0.4368 5.928 1.312 1.806 0.875 3.344 2.045 4.614 3.513 1.27 1.468 2.259 3.106 2.965 4.912 0.7057 1.806 1.058 3.669 1.058 5.588 0 1.976-0.3667 3.88-1.101 5.714-0.7339 1.806-1.764 3.43-3.091 4.87-1.298 1.411-2.85 2.526-4.656 3.345-1.778 0.8185-3.725 1.229-5.842 1.229-2.202 0-4.206-0.4245-6.013-1.271-1.778-0.8468-3.315-1.99-4.614-3.43-1.27-1.468-2.259-3.104-2.965-4.91-0.7056-1.835-1.058-3.712-1.058-5.631 0-2.004 0.3667-3.908 1.101-5.714 0.762-1.835 1.792-3.458 3.091-4.87 1.327-1.439 2.878-2.569 4.656-3.387 1.806-0.8468 3.782-1.269 5.928-1.269zm-27.81 0.04263c2.766 0 5.15 0.6058 7.154 1.82 2.032 1.214 3.543 2.794 4.53 4.742l-4.488 3.091c-0.5081-1.129-1.172-2.017-1.99-2.666-0.8185-0.6774-1.692-1.143-2.624-1.397-0.9314-0.2822-1.85-0.4244-2.754-0.4244-1.468 0-2.751 0.2967-3.852 0.8894-1.072 0.5927-1.975 1.37-2.709 2.329-0.7338 0.9596-1.284 2.031-1.651 3.217-0.3388 1.185-0.5076 2.37-0.5076 3.556 0 1.327 0.2101 2.612 0.6336 3.854 0.4234 1.214 1.017 2.3 1.779 3.259 0.7902 0.9314 1.722 1.679 2.794 2.244 1.101 0.5363 2.3 0.8042 3.598 0.8042 0.9314 0 1.877-0.1546 2.837-0.465 0.9597-0.3105 1.85-0.805 2.668-1.482s1.453-1.553 1.905-2.626l4.784 2.754c-0.5928 1.496-1.567 2.765-2.922 3.81-1.326 1.044-2.823 1.834-4.488 2.37-1.665 0.5363-3.316 0.8062-4.953 0.8062-2.145 0-4.107-0.4389-5.885-1.314-1.778-0.9032-3.317-2.088-4.616-3.556-1.27-1.496-2.272-3.161-3.005-4.996-0.7056-1.863-1.058-3.74-1.058-5.631 0-1.835 0.3255-3.627 0.9747-5.377 0.6774-1.778 1.65-3.388 2.92-4.827 1.27-1.468 2.822-2.624 4.656-3.47 1.835-0.8749 3.924-1.312 6.267-1.312zm-301.9 0.1686h20.2v5.123h-14.35v7.747h11.94v4.742h-11.94v12.45h-5.842zm23.49 0h5.844v24.94h15.33v5.121h1.907l11.09-30.06h5.928l11.05 30.06h-6.013l-2.794-7.493h-10.5l-2.754 7.493h-7.918 1.907-23.08zm48.31 0h25.02v5.123h-9.611v24.93h-5.8v-24.93h-9.611zm27.94 0h5.842v30.06h-5.842zm11.3 0h13.29c1.383 0 2.652 0.2823 3.81 0.8468 1.185 0.5645 2.201 1.327 3.048 2.287 0.8749 0.9596 1.538 2.031 1.99 3.217 0.4799 1.185 0.7209 2.399 0.7209 3.641 0 1.27-0.2266 2.498-0.6783 3.684-0.4234 1.157-1.044 2.173-1.862 3.048-0.8185 0.875-1.779 1.553-2.88 2.033l6.858 11.3h-6.433l-6.181-10.08h-5.842v10.08h-5.844zm58.38 0h4.656l15.54 19.81v-19.77h5.842v30.02h-4.87l-15.33-19.3v19.3h-5.842zm68.07 0h13.29c1.383 0 2.654 0.2823 3.812 0.8468 1.186 0.5645 2.201 1.327 3.048 2.287 0.875 0.9596 1.538 2.031 1.99 3.217 0.4798 1.185 0.7189 2.399 0.7189 3.641 0 1.27-0.2246 2.498-0.6763 3.684-0.4234 1.157-1.046 2.173-1.864 3.048-0.8185 0.875-1.777 1.553-2.878 2.033l6.858 11.3h-6.435l-6.181-10.08h-5.842v10.08h-5.842zm27.35 0h20.49v5.123h-14.65v7.239h12.66v4.742h-12.66v7.832h15.03v5.121h-20.87zm78.95 0h6.139l8.127 23.12 8.046-23.12h6.139l-11.39 30.06h-5.629zm30.86 0h20.49v5.123h-14.65v7.239h12.66v4.742h-12.66v7.832h15.03v5.121h-20.87zm24.64 0h13.3c1.383 0 2.652 0.2823 3.81 0.8468 1.185 0.5645 2.201 1.327 3.048 2.287 0.8749 0.9596 1.538 2.031 1.99 3.217 0.4798 1.185 0.7209 2.399 0.7209 3.641 0 1.27-0.2267 2.498-0.6782 3.684-0.4235 1.157-1.044 2.173-1.862 3.048-0.8185 0.875-1.779 1.553-2.88 2.033l6.858 11.3h-6.435l-6.179-10.08h-5.844v10.08h-5.842zm22.86 0h6.352l7.408 14.14 7.536-14.14h6.309l-10.92 19.56v10.5h-5.802v-10.58zm-271.1 4.995c-1.439 0-2.709 0.2967-3.81 0.8894-1.073 0.5645-1.977 1.327-2.711 2.287-0.7338 0.9596-1.298 2.031-1.694 3.217-0.367 1.185-0.5503 2.399-0.5503 3.641 0 1.298 0.1978 2.555 0.5929 3.769 0.3952 1.214 0.9597 2.3 1.694 3.259 0.762 0.9314 1.679 1.679 2.752 2.244 1.101 0.5363 2.343 0.8042 3.726 0.8042 1.411 0 2.666-0.2823 3.767-0.8468 1.101-0.5927 2.02-1.368 2.754-2.327 0.7339-0.9879 1.284-2.076 1.651-3.261 0.3952-1.214 0.593-2.427 0.593-3.641 0-1.298-0.2122-2.539-0.6356-3.724-0.3952-1.214-0.9742-2.287-1.736-3.219-0.7338-0.9596-1.651-1.708-2.752-2.244-1.073-0.5645-2.286-0.8468-3.641-0.8468zm178.6 0c-1.439 0-2.709 0.2967-3.81 0.8894-1.073 0.5645-1.975 1.327-2.709 2.287-0.7338 0.9596-1.298 2.031-1.694 3.217-0.3669 1.185-0.5503 2.399-0.5503 3.641 0 1.298 0.1978 2.555 0.593 3.769 0.3951 1.214 0.9598 2.3 1.694 3.259 0.7621 0.9314 1.679 1.679 2.752 2.244 1.101 0.5363 2.341 0.8042 3.724 0.8042 1.411 0 2.668-0.2823 3.769-0.8468 1.101-0.5927 2.018-1.368 2.752-2.327 0.7338-0.9879 1.284-2.076 1.651-3.261 0.3951-1.214 0.5929-2.427 0.5929-3.641 0-1.298-0.2123-2.539-0.6356-3.724-0.3951-1.214-0.9722-2.287-1.734-3.219-0.7338-0.9596-1.653-1.708-2.754-2.244-1.073-0.5645-2.286-0.8468-3.641-0.8468zm-212.8 0.1279v9.737h7.323c0.7339 0 1.383-0.2123 1.947-0.6356 0.5646-0.4516 1.018-1.045 1.356-1.779 0.3387-0.7339 0.5077-1.552 0.5077-2.455 0-0.9596-0.1978-1.792-0.593-2.498-0.3951-0.7339-0.9042-1.313-1.525-1.736-0.5928-0.4233-1.242-0.6336-1.947-0.6336zm126.5 0v9.737h7.325c0.7338 0 1.383-0.2123 1.947-0.6356 0.5645-0.4516 1.016-1.045 1.354-1.779 0.3388-0.7339 0.5077-1.552 0.5077-2.455 0-0.9596-0.1979-1.792-0.593-2.498-0.3953-0.7339-0.9021-1.313-1.523-1.736-0.5927-0.4233-1.242-0.6336-1.947-0.6336zm161.8 0v9.737h7.325c0.7339 0 1.383-0.2123 1.947-0.6356 0.5644-0.4516 1.016-1.045 1.354-1.779 0.3387-0.7339 0.5097-1.552 0.5097-2.455 0-0.9596-0.1978-1.792-0.5929-2.498-0.3952-0.7339-0.9042-1.313-1.525-1.736-0.5928-0.4233-1.242-0.6336-1.947-0.6336zm-344.5 0.9301-4.319 12.41h8.468z" fill="#1e1e1e"/>
</svg>
