<?xml version="1.0" encoding="UTF-8"?>
<svg version="1.1" viewBox="0 0 500 175" xmlns="http://www.w3.org/2000/svg">
    <path d="m401.2 1.997-27.74 18.49-40.51 55.47-1.092 41.6 4.62 27.74 27.74 27.73 55.47-9.244 78.58 4.624-46.22-73.96-9.244-32.36-32.36-27.73v-18.49zm-78.18 45.8-13.97 1.431-60.39 40.6-78.58 83.2h64.71l50.84-27.73 8.377-42.21zm-148.3 37.4-18.49 9.246-83.2 78.58h64.71l18.49-18.49 4.624-32.36 4.624-9.244v-9.246l9.244-9.244zm-97.07 32.36-32.36 18.49-18.49 4.624-25.38 32.36h34.63l41.61-41.6z" fill="#1e1e1e" stroke-width="1.031"/>
</svg>
