<?xml version="1.0" encoding="UTF-8"?>
<svg version="1.1" viewBox="0 0 500 250" xmlns="http://www.w3.org/2000/svg">
    <path d="m379.7 5.427-43.86 28.93-23.64 11.59-15.74 4.054-50.52 32.43-36.48 16.21-20.27-12.16-24.32 8.106-44.59 28.38-20.27-8.106-36.48 16.21-16.21 4.054-46.72 48.64v60.79h498.7v-60.79l-50.76-77.01-12.16-40.54-24.32-28.38-4.054-12.16zm0 28.38 8.106 12.16v16.21l28.38 24.32 8.106 28.38 40.54 64.85-68.9-4.054-48.64 8.106-24.32-24.32-4.054-24.32 0.9578-36.48 35.52-48.64zm-68.55 40.17-25.43 48.47-7.346 37.02-44.59 24.32h-56.74l68.9-72.96 52.96-35.6zm-130.1 32.79v8.106l-8.106 8.106v8.106l-4.054 8.106-4.054 28.38-16.21 16.21h-56.74l72.96-68.9zm-85.12 28.38v12.16l-36.48 36.48h-30.37l22.26-28.38 16.21-4.054zm79.62 64.9c2.241 0 4.277 0.4506 6.112 1.353 1.863 0.9025 3.451 2.109 4.761 3.624 1.31 1.514 2.328 3.204 3.056 5.067 0.7278 1.863 1.091 3.784 1.091 5.764 0 2.038-0.3784 4.002-1.136 5.894-0.7569 1.863-1.82 3.538-3.188 5.023-1.339 1.455-2.94 2.605-4.802 3.45-1.834 0.8443-3.842 1.268-6.026 1.268-2.27 0-4.337-0.4379-6.2-1.311-1.834-0.8734-3.421-2.053-4.761-3.538-1.31-1.514-2.328-3.202-3.056-5.064-0.7278-1.893-1.093-3.829-1.093-5.808 0-2.067 0.3783-4.031 1.136-5.894 0.786-1.893 1.848-3.567 3.188-5.023 1.369-1.484 2.971-2.65 4.805-3.494 1.863-0.8734 3.902-1.309 6.115-1.309zm61.61 0c1.455 0 2.824 0.1595 4.105 0.4796 1.31 0.3203 2.532 0.7432 3.668 1.268 1.136 0.5241 2.156 1.091 3.058 1.703l-2.664 4.891c-0.2037-0.2037-0.5823-0.4802-1.136-0.8295-0.5241-0.3494-1.179-0.6852-1.965-1.005-0.757-0.3202-1.588-0.5966-2.491-0.8295-0.9024-0.262-1.818-0.3938-2.75-0.3938-1.631 0-2.867 0.306-3.711 0.9175-0.8151 0.6113-1.223 1.47-1.223 2.577 0 0.8442 0.2616 1.514 0.7856 2.008 0.5241 0.4949 1.31 0.9179 2.359 1.268 1.048 0.3494 2.357 0.7277 3.93 1.136 2.038 0.4949 3.8 1.107 5.284 1.835 1.514 0.6987 2.664 1.63 3.45 2.794 0.8152 1.136 1.223 2.649 1.223 4.542 0 1.66-0.306 3.086-0.9174 4.28-0.6114 1.165-1.455 2.11-2.532 2.839-1.077 0.7278-2.299 1.268-3.668 1.617-1.369 0.3203-2.824 0.4796-4.367 0.4796-1.543 0-3.086-0.1595-4.629-0.4796-1.543-0.3203-3.028-0.7708-4.455-1.353-1.427-0.6114-2.735-1.341-3.93-2.185l2.664-5.197c0.2621 0.262 0.7275 0.6127 1.397 1.049 0.6696 0.4075 1.483 0.8284 2.445 1.266 0.9607 0.4076 2.008 0.7583 3.144 1.049 1.136 0.2912 2.286 0.4357 3.45 0.4357 1.631 0 2.87-0.2763 3.713-0.8295 0.8443-0.5532 1.265-1.34 1.265-2.359 0-0.9316-0.3337-1.659-1.003-2.183-0.6696-0.524-1.603-0.9767-2.796-1.355-1.193-0.4074-2.604-0.8433-4.235-1.309-1.95-0.5532-3.58-1.166-4.891-1.835-1.31-0.6987-2.286-1.572-2.926-2.62-0.6405-1.048-0.9613-2.357-0.9613-3.93 0-2.125 0.4952-3.902 1.485-5.329 1.019-1.455 2.388-2.546 4.105-3.274 1.717-0.7569 3.625-1.136 5.721-1.136zm122.5 0c2.241 0 4.281 0.4506 6.115 1.353 1.863 0.9025 3.449 2.109 4.759 3.624 1.31 1.514 2.33 3.204 3.058 5.067 0.7279 1.863 1.091 3.784 1.091 5.764 0 2.038-0.3782 4.002-1.136 5.894-0.757 1.863-1.82 3.538-3.188 5.023-1.339 1.455-2.94 2.605-4.802 3.45-1.834 0.8443-3.842 1.268-6.026 1.268-2.271 0-4.338-0.4379-6.202-1.311-1.834-0.8734-3.419-2.053-4.759-3.538-1.31-1.514-2.33-3.202-3.058-5.064-0.7278-1.893-1.091-3.829-1.091-5.808 0-2.067 0.3782-4.031 1.136-5.894 0.786-1.893 1.848-3.567 3.188-5.023 1.369-1.484 2.969-2.65 4.803-3.494 1.863-0.8734 3.901-1.309 6.115-1.309zm-28.69 0.044c2.853 0 5.312 0.6249 7.379 1.877 2.096 1.252 3.654 2.882 4.673 4.891l-4.629 3.188c-0.5241-1.165-1.209-2.08-2.053-2.75-0.8442-0.6987-1.745-1.179-2.707-1.441-0.9607-0.2911-1.908-0.4378-2.841-0.4378-1.514 0-2.838 0.306-3.973 0.9174-1.106 0.6114-2.037 1.413-2.794 2.402-0.7569 0.9898-1.324 2.095-1.703 3.318-0.3495 1.222-0.5236 2.445-0.5236 3.668 0 1.369 0.2167 2.694 0.6535 3.975 0.4367 1.252 1.049 2.372 1.835 3.362 0.8151 0.9607 1.776 1.732 2.882 2.315 1.136 0.5532 2.372 0.8295 3.711 0.8295 0.9607 0 1.936-0.1595 2.926-0.4796 0.9899-0.3203 1.908-0.8303 2.752-1.529 0.8437-0.6983 1.499-1.602 1.965-2.709l4.935 2.841c-0.6115 1.543-1.616 2.852-3.014 3.93-1.368 1.077-2.912 1.892-4.629 2.445-1.717 0.5532-3.42 0.8316-5.109 0.8316-2.212 0-4.236-0.4527-6.07-1.355-1.834-0.9316-3.421-2.154-4.761-3.668-1.31-1.543-2.343-3.26-3.1-5.153-0.7278-1.922-1.091-3.858-1.091-5.808 0-1.893 0.3357-3.741 1.005-5.546 0.6987-1.834 1.702-3.495 3.012-4.979 1.31-1.514 2.911-2.707 4.803-3.579 1.893-0.9024 4.047-1.353 6.464-1.353zm-311.4 0.1739h20.84v5.284h-14.8v7.991h12.32v4.891h-12.32v12.84h-6.026zm24.23 0h6.028v25.72h15.81v5.282h1.967l11.44-31.01h6.115l11.4 31.01h-6.202l-2.882-7.729h-10.83l-2.841 7.729h-8.167 1.967-23.81zm49.83 0h25.81v5.284h-9.913v25.71h-5.982v-25.71h-9.913zm28.82 0h6.026v31.01h-6.026zm11.66 0h13.71c1.427 0 2.735 0.2912 3.93 0.8734 1.222 0.5823 2.27 1.369 3.144 2.359 0.9024 0.9898 1.586 2.095 2.053 3.318 0.495 1.222 0.7436 2.474 0.7436 3.756 0 1.31-0.2337 2.577-0.6996 3.8-0.4367 1.193-1.077 2.241-1.921 3.144-0.8442 0.9025-1.835 1.602-2.971 2.097l7.074 11.66h-6.635l-6.375-10.4h-6.026v10.4h-6.028zm60.22 0h4.802l16.03 20.43v-20.39h6.026v30.96h-5.023l-15.81-19.91v19.91h-6.026zm70.21 0h13.71c1.427 0 2.738 0.2912 3.932 0.8734 1.223 0.5823 2.27 1.369 3.144 2.359 0.9025 0.9898 1.586 2.095 2.053 3.318 0.4949 1.222 0.7415 2.474 0.7415 3.756 0 1.31-0.2317 2.577-0.6976 3.8-0.4367 1.193-1.079 2.241-1.923 3.144-0.8442 0.9025-1.833 1.602-2.969 2.097l7.074 11.66h-6.637l-6.375-10.4h-6.026v10.4h-6.026zm28.21 0h21.13v5.284h-15.11v7.467h13.06v4.891h-13.06v8.078h15.5v5.282h-21.53zm81.43 0h6.332l8.383 23.85 8.299-23.85h6.332l-11.75 31.01h-5.806zm31.83 0h21.13v5.284h-15.11v7.467h13.06v4.891h-13.06v8.078h15.5v5.282h-21.53zm25.42 0h13.72c1.427 0 2.735 0.2912 3.93 0.8734 1.222 0.5823 2.27 1.369 3.144 2.359 0.9024 0.9898 1.586 2.095 2.053 3.318 0.4949 1.222 0.7436 2.474 0.7436 3.756 0 1.31-0.2338 2.577-0.6996 3.8-0.4368 1.193-1.077 2.241-1.921 3.144-0.8442 0.9025-1.835 1.602-2.971 2.097l7.074 11.66h-6.637l-6.373-10.4h-6.028v10.4h-6.026zm23.58 0h6.552l7.641 14.58 7.773-14.58h6.508l-11.26 20.18v10.83h-5.985v-10.91zm-279.6 5.152c-1.484 0-2.794 0.306-3.93 0.9174-1.107 0.5823-2.039 1.369-2.796 2.359-0.7569 0.9898-1.339 2.095-1.747 3.318-0.3785 1.222-0.5676 2.474-0.5676 3.756 0 1.339 0.204 2.635 0.6116 3.888 0.4076 1.252 0.9899 2.372 1.747 3.362 0.786 0.9607 1.732 1.732 2.839 2.315 1.136 0.5532 2.417 0.8295 3.843 0.8295 1.455 0 2.75-0.2912 3.886-0.8734 1.136-0.6114 2.084-1.411 2.841-2.4 0.757-1.019 1.324-2.141 1.703-3.364 0.4076-1.252 0.6117-2.503 0.6117-3.756 0-1.339-0.2189-2.619-0.6556-3.841-0.4076-1.252-1.005-2.359-1.791-3.32-0.7569-0.9898-1.703-1.762-2.839-2.315-1.107-0.5823-2.358-0.8734-3.756-0.8734zm184.2 0c-1.484 0-2.794 0.306-3.93 0.9174-1.107 0.5823-2.037 1.369-2.794 2.359-0.7569 0.9898-1.339 2.095-1.747 3.318-0.3784 1.222-0.5676 2.474-0.5676 3.756 0 1.339 0.204 2.635 0.6117 3.888 0.4075 1.252 0.99 2.372 1.747 3.362 0.7861 0.9607 1.732 1.732 2.839 2.315 1.136 0.5532 2.415 0.8295 3.841 0.8295 1.455 0 2.752-0.2912 3.888-0.8734 1.136-0.6114 2.081-1.411 2.839-2.4 0.7569-1.019 1.324-2.141 1.703-3.364 0.4075-1.252 0.6116-2.503 0.6116-3.756 0-1.339-0.219-2.619-0.6556-3.841-0.4075-1.252-1.003-2.359-1.789-3.32-0.7569-0.9898-1.705-1.762-2.841-2.315-1.107-0.5823-2.358-0.8734-3.756-0.8734zm-219.5 0.1319v10.04h7.553c0.757 0 1.427-0.219 2.008-0.6556 0.5824-0.4658 1.05-1.078 1.399-1.835 0.3494-0.757 0.5237-1.601 0.5237-2.532 0-0.9898-0.204-1.848-0.6117-2.577-0.4075-0.757-0.9326-1.354-1.573-1.791-0.6115-0.4366-1.281-0.6535-2.008-0.6535zm130.5 0v10.04h7.555c0.7569 0 1.427-0.219 2.008-0.6556 0.5823-0.4658 1.048-1.078 1.397-1.835 0.3495-0.757 0.5237-1.601 0.5237-2.532 0-0.9898-0.2041-1.848-0.6117-2.577-0.4077-0.757-0.9305-1.354-1.571-1.791-0.6114-0.4366-1.281-0.6535-2.008-0.6535zm166.9 0v10.04h7.555c0.757 0 1.427-0.219 2.008-0.6556 0.5822-0.4658 1.048-1.078 1.397-1.835 0.3494-0.757 0.5257-1.601 0.5257-2.532 0-0.9898-0.204-1.848-0.6116-2.577-0.4076-0.757-0.9326-1.354-1.573-1.791-0.6114-0.4366-1.281-0.6535-2.008-0.6535zm-355.3 0.9594-4.455 12.8h8.734z" fill="#1e1e1e" stroke-width="1.031"/>
</svg>
