<?xml version="1.0" encoding="UTF-8" standalone="no"?>
<svg
   xmlns:dc="http://purl.org/dc/elements/1.1/"
   xmlns:cc="http://creativecommons.org/ns#"
   xmlns:rdf="http://www.w3.org/1999/02/22-rdf-syntax-ns#"
   xmlns:svg="http://www.w3.org/2000/svg"
   xmlns="http://www.w3.org/2000/svg"
   height="24"
   width="24"
   id="svg4"
   version="1.1"
   viewBox="0 0 24 24">
  <metadata
     id="metadata10">
    <rdf:RDF>
      <cc:Work
         rdf:about="">
        <dc:format>image/svg+xml</dc:format>
        <dc:type
           rdf:resource="http://purl.org/dc/dcmitype/StillImage" />
        <dc:title></dc:title>
      </cc:Work>
    </rdf:RDF>
  </metadata>
  <defs
     id="defs8" />
  <path
     id="path2"
     d="m 6.62,10.79 c 1.4288006,2.81886 3.776682,5.154223 6.59,6.59 0.771239,-0.761844 1.524323,-1.543183 2.306992,-2.292754 0.695756,-0.491171 1.47247,0.144442 2.207813,0.195703 0.873165,0.221302 1.789064,0.155469 2.663476,0.305957 C 21.186055,15.92215 20.96998,16.8448 21,17.528234 c -0.01226,0.890605 0.02539,1.783739 -0.02041,2.672645 -0.249626,1.061739 -1.484839,0.778085 -2.287725,0.749558 C 13.378199,20.586318 8.3576951,17.521411 5.5683771,12.990188 3.8661085,10.257269 2.9301131,7.0225207 3.0204102,3.7991211 3.1538985,3.0294899 3.9809698,2.9534745 4.6109403,3 5.6406346,3.012432 6.6728869,2.974383 7.7008789,3.02041 8.8032338,3.2853664 8.408235,4.5641751 8.582793,5.383574 8.658162,6.222224 8.9276847,7.0253278 9.1167188,7.837656 9.1099228,8.5725514 8.3778666,8.9452893 7.956,9.454 7.5106666,9.8993334 7.0653333,10.344667 6.62,10.79 Z"
     style="fill:#222222;fill-opacity:1;stroke:none;stroke-opacity:1" />
</svg>
